<svg width="186" height="108" viewBox="0 0 186 108" fill="none" xmlns="http://www.w3.org/2000/svg">
<path d="M103.469 35.875H109.797L118 60.2734L126.18 35.875H132.508L120.555 70H115.422L103.469 35.875ZM99.8125 35.875H106.258L107.453 61.1641V70H99.8125V35.875ZM129.719 35.875H136.188V70H128.523V61.1641L129.719 35.875ZM146.641 51.9062L153.555 47.5234C154.523 46.8984 155.141 46.2969 155.406 45.7188C155.688 45.1406 155.828 44.5312 155.828 43.8906C155.828 43.2031 155.578 42.5625 155.078 41.9688C154.578 41.375 153.875 41.0781 152.969 41.0781C152.312 41.0781 151.758 41.2266 151.305 41.5234C150.867 41.8203 150.531 42.2188 150.297 42.7188C150.078 43.2031 149.969 43.7422 149.969 44.3359C149.969 45.0391 150.156 45.7578 150.531 46.4922C150.922 47.2109 151.438 47.9688 152.078 48.7656C152.719 49.5625 153.438 50.4375 154.234 51.3906L170.289 70H162.062L148.961 54.9766C147.867 53.6016 146.914 52.3359 146.102 51.1797C145.289 50.0234 144.656 48.9062 144.203 47.8281C143.75 46.7344 143.523 45.6094 143.523 44.4531C143.523 42.6562 143.914 41.0781 144.695 39.7188C145.477 38.3594 146.57 37.2969 147.977 36.5312C149.398 35.7656 151.07 35.3828 152.992 35.3828C154.789 35.3828 156.344 35.75 157.656 36.4844C158.969 37.2188 159.984 38.1953 160.703 39.4141C161.422 40.6328 161.781 41.9688 161.781 43.4219C161.781 44.4688 161.586 45.4531 161.195 46.375C160.805 47.2812 160.266 48.1172 159.578 48.8828C158.906 49.6328 158.133 50.3203 157.258 50.9453L149.594 56.3594C149.141 56.8125 148.789 57.2656 148.539 57.7188C148.305 58.1719 148.141 58.6172 148.047 59.0547C147.953 59.4922 147.906 59.9375 147.906 60.3906C147.906 61.25 148.086 62.0156 148.445 62.6875C148.805 63.3438 149.305 63.8594 149.945 64.2344C150.586 64.6094 151.312 64.7969 152.125 64.7969C153.391 64.7969 154.617 64.5156 155.805 63.9531C157.008 63.3906 158.078 62.5938 159.016 61.5625C159.953 60.5312 160.695 59.3047 161.242 57.8828C161.805 56.4453 162.086 54.8672 162.086 53.1484H168.273C168.273 54.9453 168.094 56.6562 167.734 58.2812C167.375 59.8906 166.797 61.3828 166 62.7578C165.203 64.1172 164.133 65.3203 162.789 66.3672C162.711 66.4297 162.57 66.5312 162.367 66.6719C162.18 66.8125 162.039 66.9141 161.945 66.9766C160.383 68.1641 158.789 69.0469 157.164 69.625C155.555 70.2031 153.719 70.4922 151.656 70.4922C149.375 70.4922 147.398 70.0781 145.727 69.25C144.07 68.4219 142.789 67.2812 141.883 65.8281C140.977 64.375 140.523 62.7109 140.523 60.8359C140.523 59.4922 140.781 58.3203 141.297 57.3203C141.828 56.3047 142.555 55.3672 143.477 54.5078C144.398 53.6328 145.453 52.7656 146.641 51.9062ZM181.961 35.875V70H174.344V35.875H181.961Z" fill="white"/>
<path d="M46.0173 23.2695L64.1752 67.7899C66.4554 73.3808 62.3426 79.5 56.3046 79.5H19.989C13.951 79.5 9.83816 73.3808 12.1184 67.79L30.2762 23.2695C33.1529 16.2162 43.1406 16.2162 46.0173 23.2695Z" stroke="white" stroke-width="3"/>
<path d="M66.8247 23.2695L84.9825 67.7899C87.2627 73.3808 83.1499 79.5 77.1119 79.5H40.7963C34.7583 79.5 30.6455 73.3808 32.9257 67.79L51.0835 23.2695C53.9602 16.2162 63.948 16.2162 66.8247 23.2695Z" stroke="white" stroke-width="3"/>
</svg>
