<svg width="1042" height="123" viewBox="0 0 1042 123" fill="none" xmlns="http://www.w3.org/2000/svg">
<mask id="path-1-outside-1_152_30" maskUnits="userSpaceOnUse" x="-4" y="-4" width="1050" height="131" fill="black">
<rect fill="white" x="-4" y="-4" width="1050" height="131"/>
<path d="M10.25 5H27.125L49 70.0625L70.8125 5H87.6875L55.8125 96H42.125L10.25 5ZM0.5 5H17.6875L20.875 72.4375V96H0.5V5ZM80.25 5H97.5V96H77.0625V72.4375L80.25 5ZM151.312 79.6875V28.375H170.938V96H152.562L151.312 79.6875ZM153.375 65.875L158.75 65.75C158.75 70.2917 158.208 74.4792 157.125 78.3125C156.083 82.1458 154.5 85.4792 152.375 88.3125C150.292 91.1458 147.688 93.3542 144.562 94.9375C141.479 96.4792 137.875 97.25 133.75 97.25C130.417 97.25 127.354 96.7917 124.562 95.875C121.812 94.9167 119.438 93.4375 117.438 91.4375C115.438 89.3958 113.896 86.7917 112.812 83.625C111.729 80.4167 111.188 76.5833 111.188 72.125V28.375H130.688V72.25C130.688 74 130.896 75.5 131.312 76.75C131.771 77.9583 132.375 78.9583 133.125 79.75C133.917 80.5417 134.875 81.125 136 81.5C137.167 81.875 138.438 82.0625 139.812 82.0625C143.271 82.0625 145.979 81.3542 147.938 79.9375C149.938 78.4792 151.333 76.5417 152.125 74.125C152.958 71.6667 153.375 68.9167 153.375 65.875ZM219.625 77.1875C219.625 75.9375 219.229 74.8333 218.438 73.875C217.688 72.9167 216.312 72.0417 214.312 71.25C212.354 70.4583 209.583 69.6667 206 68.875C202.625 68.1667 199.479 67.25 196.562 66.125C193.646 64.9583 191.104 63.5625 188.938 61.9375C186.771 60.2708 185.083 58.3125 183.875 56.0625C182.667 53.7708 182.062 51.1667 182.062 48.25C182.062 45.4167 182.667 42.7292 183.875 40.1875C185.125 37.6458 186.917 35.3958 189.25 33.4375C191.625 31.4792 194.5 29.9375 197.875 28.8125C201.292 27.6875 205.167 27.125 209.5 27.125C215.458 27.125 220.604 28.0625 224.938 29.9375C229.271 31.7708 232.604 34.3542 234.938 37.6875C237.271 40.9792 238.438 44.75 238.438 49H218.938C218.938 47.25 218.604 45.7292 217.938 44.4375C217.271 43.1458 216.25 42.1458 214.875 41.4375C213.5 40.6875 211.688 40.3125 209.438 40.3125C207.688 40.3125 206.146 40.625 204.812 41.25C203.521 41.8333 202.5 42.6458 201.75 43.6875C201.042 44.7292 200.688 45.9375 200.688 47.3125C200.688 48.2708 200.896 49.1458 201.312 49.9375C201.771 50.6875 202.458 51.3958 203.375 52.0625C204.333 52.6875 205.562 53.25 207.062 53.75C208.604 54.25 210.479 54.7292 212.688 55.1875C217.396 56.0625 221.688 57.2917 225.562 58.875C229.479 60.4583 232.604 62.6458 234.938 65.4375C237.312 68.2292 238.5 71.9167 238.5 76.5C238.5 79.5 237.812 82.25 236.438 84.75C235.104 87.25 233.167 89.4375 230.625 91.3125C228.083 93.1875 225.042 94.6458 221.5 95.6875C217.958 96.7292 213.958 97.25 209.5 97.25C203.125 97.25 197.729 96.1042 193.312 93.8125C188.896 91.5208 185.562 88.6458 183.312 85.1875C181.104 81.6875 180 78.1042 180 74.4375H198.312C198.396 76.6875 198.958 78.5208 200 79.9375C201.083 81.3542 202.479 82.3958 204.188 83.0625C205.896 83.6875 207.812 84 209.938 84C212.062 84 213.833 83.7083 215.25 83.125C216.667 82.5417 217.75 81.75 218.5 80.75C219.25 79.7083 219.625 78.5208 219.625 77.1875ZM269.938 28.375V96H250.375V28.375H269.938ZM249.188 10.875C249.188 8.04167 250.188 5.72917 252.188 3.9375C254.188 2.10417 256.812 1.1875 260.062 1.1875C263.312 1.1875 265.938 2.10417 267.938 3.9375C269.979 5.72917 271 8.04167 271 10.875C271 13.6667 269.979 15.9792 267.938 17.8125C265.938 19.6042 263.312 20.5 260.062 20.5C256.812 20.5 254.188 19.6042 252.188 17.8125C250.188 15.9792 249.188 13.6667 249.188 10.875ZM312.25 82.0625C314.333 82.0625 316.146 81.6667 317.688 80.875C319.229 80.0833 320.417 78.9792 321.25 77.5625C322.125 76.1042 322.562 74.3542 322.562 72.3125H340.938C340.938 77.2292 339.667 81.5625 337.125 85.3125C334.625 89.0625 331.25 92 327 94.125C322.75 96.2083 317.958 97.25 312.625 97.25C307.375 97.25 302.792 96.3958 298.875 94.6875C294.958 92.9375 291.688 90.5 289.062 87.375C286.438 84.25 284.458 80.625 283.125 76.5C281.833 72.3333 281.188 67.8333 281.188 63V61.375C281.188 56.5833 281.833 52.1042 283.125 47.9375C284.458 43.7708 286.438 40.125 289.062 37C291.688 33.875 294.938 31.4583 298.812 29.75C302.729 28 307.312 27.125 312.562 27.125C318.104 27.125 323 28.1875 327.25 30.3125C331.542 32.4375 334.896 35.5 337.312 39.5C339.729 43.4583 340.938 48.2292 340.938 53.8125H322.562C322.562 51.6458 322.167 49.7083 321.375 48C320.625 46.25 319.458 44.875 317.875 43.875C316.333 42.8333 314.417 42.3125 312.125 42.3125C309.75 42.3125 307.792 42.8333 306.25 43.875C304.75 44.875 303.604 46.2708 302.812 48.0625C302.021 49.8542 301.479 51.8958 301.188 54.1875C300.896 56.4375 300.75 58.8333 300.75 61.375V63C300.75 65.5833 300.896 68.0417 301.188 70.375C301.479 72.6667 302.021 74.6875 302.812 76.4375C303.646 78.1875 304.812 79.5625 306.312 80.5625C307.812 81.5625 309.792 82.0625 312.25 82.0625ZM418.312 79.875V50.875C418.312 48.8333 418 47.0833 417.375 45.625C416.75 44.1667 415.771 43.0208 414.438 42.1875C413.104 41.3542 411.375 40.9375 409.25 40.9375C407.458 40.9375 405.896 41.25 404.562 41.875C403.271 42.5 402.271 43.3958 401.562 44.5625C400.896 45.7292 400.562 47.1667 400.562 48.875H381.062C381.062 45.8333 381.75 43 383.125 40.375C384.5 37.75 386.458 35.4375 389 33.4375C391.583 31.4375 394.667 29.8958 398.25 28.8125C401.833 27.6875 405.854 27.125 410.312 27.125C415.604 27.125 420.312 28.0208 424.438 29.8125C428.604 31.5625 431.896 34.2083 434.312 37.75C436.729 41.25 437.938 45.6667 437.938 51V79.3125C437.938 83.3958 438.167 86.6042 438.625 88.9375C439.125 91.2292 439.833 93.2292 440.75 94.9375V96H421.062C420.146 94.0417 419.458 91.625 419 88.75C418.542 85.8333 418.312 82.875 418.312 79.875ZM420.75 54.75L420.875 65.5H411.188C409.021 65.5 407.146 65.7708 405.562 66.3125C404.021 66.8542 402.771 67.6042 401.812 68.5625C400.854 69.4792 400.146 70.5625 399.688 71.8125C399.271 73.0208 399.062 74.3542 399.062 75.8125C399.062 77.1875 399.396 78.4375 400.062 79.5625C400.729 80.6458 401.646 81.5 402.812 82.125C403.979 82.75 405.333 83.0625 406.875 83.0625C409.417 83.0625 411.583 82.5625 413.375 81.5625C415.208 80.5625 416.625 79.3542 417.625 77.9375C418.625 76.4792 419.125 75.125 419.125 73.875L423.812 82C423.062 83.6667 422.146 85.3958 421.062 87.1875C419.979 88.9375 418.604 90.5833 416.938 92.125C415.271 93.625 413.25 94.8542 410.875 95.8125C408.542 96.7708 405.729 97.25 402.438 97.25C398.188 97.25 394.333 96.3958 390.875 94.6875C387.417 92.9375 384.646 90.5417 382.562 87.5C380.521 84.4583 379.5 80.9583 379.5 77C379.5 73.4583 380.146 70.3125 381.438 67.5625C382.729 64.8125 384.667 62.4792 387.25 60.5625C389.875 58.6458 393.167 57.2083 397.125 56.25C401.083 55.25 405.708 54.75 411 54.75H420.75ZM469.875 42.8125V96H450.312V28.375H468.688L469.875 42.8125ZM467.312 59.8125L462.438 59.9375C462.438 54.8542 463.062 50.2917 464.312 46.25C465.562 42.2083 467.333 38.7708 469.625 35.9375C471.958 33.0625 474.729 30.875 477.938 29.375C481.188 27.875 484.771 27.125 488.688 27.125C491.854 27.125 494.75 27.5833 497.375 28.5C500 29.4167 502.25 30.8958 504.125 32.9375C506.042 34.9375 507.5 37.6042 508.5 40.9375C509.5 44.2292 510 48.2917 510 53.125V96H490.375V53.0625C490.375 50.2292 489.979 48.0417 489.188 46.5C488.396 44.9583 487.229 43.875 485.688 43.25C484.188 42.625 482.354 42.3125 480.188 42.3125C477.896 42.3125 475.938 42.7708 474.312 43.6875C472.688 44.5625 471.354 45.7917 470.312 47.375C469.271 48.9583 468.5 50.8125 468 52.9375C467.542 55.0625 467.312 57.3542 467.312 59.8125ZM562.125 80.875V0H581.75V96H564.125L562.125 80.875ZM520 63V61.6875C520 56.5625 520.562 51.8958 521.688 47.6875C522.854 43.4375 524.542 39.7917 526.75 36.75C529 33.6667 531.771 31.2917 535.062 29.625C538.354 27.9583 542.125 27.125 546.375 27.125C550.292 27.125 553.708 28 556.625 29.75C559.542 31.4583 562.021 33.875 564.062 37C566.146 40.0833 567.833 43.7292 569.125 47.9375C570.417 52.1042 571.396 56.625 572.062 61.5V63.75C571.438 68.4167 570.458 72.7708 569.125 76.8125C567.833 80.8542 566.146 84.4167 564.062 87.5C562.021 90.5417 559.521 92.9375 556.562 94.6875C553.646 96.3958 550.208 97.25 546.25 97.25C542 97.25 538.229 96.3958 534.938 94.6875C531.688 92.9792 528.958 90.5833 526.75 87.5C524.542 84.4167 522.854 80.7917 521.688 76.625C520.562 72.4583 520 67.9167 520 63ZM539.5 61.6875V63C539.5 65.6667 539.688 68.1458 540.062 70.4375C540.479 72.7292 541.146 74.75 542.062 76.5C542.979 78.25 544.188 79.625 545.688 80.625C547.188 81.5833 549.021 82.0625 551.188 82.0625C554.104 82.0625 556.5 81.3958 558.375 80.0625C560.25 78.6875 561.667 76.7917 562.625 74.375C563.583 71.9583 564.083 69.1458 564.125 65.9375V59.375C564.125 56.7083 563.854 54.3125 563.312 52.1875C562.771 50.0625 561.958 48.2708 560.875 46.8125C559.833 45.3542 558.521 44.25 556.938 43.5C555.354 42.7083 553.479 42.3125 551.312 42.3125C549.188 42.3125 547.375 42.8125 545.875 43.8125C544.375 44.7708 543.146 46.125 542.188 47.875C541.271 49.625 540.583 51.6875 540.125 54.0625C539.708 56.3958 539.5 58.9375 539.5 61.6875ZM649.312 5V96H629V5H649.312ZM684.312 42.5625V96H664.812V28.375H683.125L684.312 42.5625ZM681.812 59.8125L676.875 59.9375C676.875 55.1875 677.438 50.8333 678.562 46.875C679.729 42.875 681.417 39.3958 683.625 36.4375C685.833 33.4792 688.562 31.1875 691.812 29.5625C695.104 27.9375 698.896 27.125 703.188 27.125C706.188 27.125 708.917 27.5833 711.375 28.5C713.833 29.375 715.938 30.7708 717.688 32.6875C719.479 34.5625 720.854 37.0208 721.812 40.0625C722.771 43.0625 723.25 46.6667 723.25 50.875V96H703.75V53.25C703.75 50.25 703.375 47.9792 702.625 46.4375C701.917 44.8542 700.875 43.7708 699.5 43.1875C698.125 42.6042 696.479 42.3125 694.562 42.3125C692.479 42.3125 690.625 42.7708 689 43.6875C687.417 44.5625 686.083 45.7917 685 47.375C683.917 48.9583 683.104 50.8125 682.562 52.9375C682.062 55.0625 681.812 57.3542 681.812 59.8125ZM721.25 58.8125L715.062 59.3125C715.062 54.7292 715.604 50.4792 716.688 46.5625C717.771 42.6458 719.396 39.25 721.562 36.375C723.729 33.4583 726.417 31.1875 729.625 29.5625C732.875 27.9375 736.646 27.125 740.938 27.125C744.104 27.125 746.979 27.5833 749.562 28.5C752.188 29.4167 754.438 30.8958 756.312 32.9375C758.229 34.9792 759.708 37.6667 760.75 41C761.792 44.2917 762.312 48.3333 762.312 53.125V96H742.688V53.125C742.688 50.1667 742.312 47.9167 741.562 46.375C740.854 44.8333 739.812 43.7708 738.438 43.1875C737.104 42.6042 735.5 42.3125 733.625 42.3125C731.542 42.3125 729.729 42.75 728.188 43.625C726.646 44.4583 725.354 45.625 724.312 47.125C723.271 48.5833 722.5 50.3125 722 52.3125C721.5 54.3125 721.25 56.4792 721.25 58.8125ZM811.188 79.875V50.875C811.188 48.8333 810.875 47.0833 810.25 45.625C809.625 44.1667 808.646 43.0208 807.312 42.1875C805.979 41.3542 804.25 40.9375 802.125 40.9375C800.333 40.9375 798.771 41.25 797.438 41.875C796.146 42.5 795.146 43.3958 794.438 44.5625C793.771 45.7292 793.438 47.1667 793.438 48.875H773.938C773.938 45.8333 774.625 43 776 40.375C777.375 37.75 779.333 35.4375 781.875 33.4375C784.458 31.4375 787.542 29.8958 791.125 28.8125C794.708 27.6875 798.729 27.125 803.188 27.125C808.479 27.125 813.188 28.0208 817.312 29.8125C821.479 31.5625 824.771 34.2083 827.188 37.75C829.604 41.25 830.812 45.6667 830.812 51V79.3125C830.812 83.3958 831.042 86.6042 831.5 88.9375C832 91.2292 832.708 93.2292 833.625 94.9375V96H813.938C813.021 94.0417 812.333 91.625 811.875 88.75C811.417 85.8333 811.188 82.875 811.188 79.875ZM813.625 54.75L813.75 65.5H804.062C801.896 65.5 800.021 65.7708 798.438 66.3125C796.896 66.8542 795.646 67.6042 794.688 68.5625C793.729 69.4792 793.021 70.5625 792.562 71.8125C792.146 73.0208 791.938 74.3542 791.938 75.8125C791.938 77.1875 792.271 78.4375 792.938 79.5625C793.604 80.6458 794.521 81.5 795.688 82.125C796.854 82.75 798.208 83.0625 799.75 83.0625C802.292 83.0625 804.458 82.5625 806.25 81.5625C808.083 80.5625 809.5 79.3542 810.5 77.9375C811.5 76.4792 812 75.125 812 73.875L816.688 82C815.938 83.6667 815.021 85.3958 813.938 87.1875C812.854 88.9375 811.479 90.5833 809.812 92.125C808.146 93.625 806.125 94.8542 803.75 95.8125C801.417 96.7708 798.604 97.25 795.312 97.25C791.062 97.25 787.208 96.3958 783.75 94.6875C780.292 92.9375 777.521 90.5417 775.438 87.5C773.396 84.4583 772.375 80.9583 772.375 77C772.375 73.4583 773.021 70.3125 774.312 67.5625C775.604 64.8125 777.542 62.4792 780.125 60.5625C782.75 58.6458 786.042 57.2083 790 56.25C793.958 55.25 798.583 54.75 803.875 54.75H813.625ZM886.25 28.375H904V93.5625C904 99.7708 902.583 105.042 899.75 109.375C896.958 113.708 893.062 117 888.062 119.25C883.062 121.5 877.208 122.625 870.5 122.625C867.583 122.625 864.542 122.229 861.375 121.438C858.208 120.688 855.229 119.542 852.438 118C849.646 116.5 847.312 114.583 845.438 112.25L853.75 100.75C855.667 102.917 857.958 104.667 860.625 106C863.292 107.375 866.333 108.062 869.75 108.062C872.875 108.062 875.521 107.5 877.688 106.375C879.854 105.25 881.5 103.604 882.625 101.438C883.792 99.2708 884.375 96.6458 884.375 93.5625V44.1875L886.25 28.375ZM841.062 63V61.6875C841.062 56.5625 841.688 51.8958 842.938 47.6875C844.188 43.4375 846 39.7917 848.375 36.75C850.792 33.6667 853.688 31.2917 857.062 29.625C860.479 27.9583 864.312 27.125 868.562 27.125C873.146 27.125 876.938 28 879.938 29.75C882.938 31.4583 885.375 33.875 887.25 37C889.125 40.0833 890.604 43.7292 891.688 47.9375C892.771 52.1042 893.646 56.625 894.312 61.5V63.75C893.646 68.4167 892.688 72.7708 891.438 76.8125C890.188 80.8542 888.562 84.4167 886.562 87.5C884.562 90.5417 882.062 92.9375 879.062 94.6875C876.104 96.3958 872.562 97.25 868.438 97.25C864.229 97.25 860.438 96.3958 857.062 94.6875C853.688 92.9792 850.792 90.5833 848.375 87.5C846 84.4167 844.188 80.7917 842.938 76.625C841.688 72.4583 841.062 67.9167 841.062 63ZM860.562 61.6875V63C860.562 65.6667 860.812 68.1458 861.312 70.4375C861.854 72.7292 862.646 74.75 863.688 76.5C864.771 78.25 866.104 79.625 867.688 80.625C869.312 81.5833 871.208 82.0625 873.375 82.0625C876.542 82.0625 879.104 81.3958 881.062 80.0625C883.062 78.6875 884.521 76.7917 885.438 74.375C886.396 71.9583 886.896 69.1458 886.938 65.9375V59.375C886.938 56.7083 886.667 54.3125 886.125 52.1875C885.583 50.0625 884.771 48.2708 883.688 46.8125C882.646 45.3542 881.271 44.25 879.562 43.5C877.896 42.7083 875.875 42.3125 873.5 42.3125C871.375 42.3125 869.5 42.8125 867.875 43.8125C866.25 44.7708 864.896 46.125 863.812 47.875C862.729 49.625 861.917 51.6875 861.375 54.0625C860.833 56.3958 860.562 58.9375 860.562 61.6875ZM948.875 97.25C943.5 97.25 938.688 96.3958 934.438 94.6875C930.188 92.9792 926.583 90.625 923.625 87.625C920.708 84.5833 918.479 81.0833 916.938 77.125C915.396 73.1667 914.625 68.9375 914.625 64.4375V62.0625C914.625 57.0208 915.333 52.375 916.75 48.125C918.167 43.875 920.229 40.1875 922.938 37.0625C925.688 33.8958 929.062 31.4583 933.062 29.75C937.062 28 941.625 27.125 946.75 27.125C951.542 27.125 955.812 27.9167 959.562 29.5C963.312 31.0417 966.479 33.2708 969.062 36.1875C971.646 39.0625 973.604 42.5417 974.938 46.625C976.312 50.6667 977 55.2083 977 60.25V68.25H922.5V55.6875H957.875V54.1875C957.875 51.8125 957.438 49.7292 956.562 47.9375C955.729 46.1458 954.479 44.7708 952.812 43.8125C951.188 42.8125 949.125 42.3125 946.625 42.3125C944.25 42.3125 942.271 42.8125 940.688 43.8125C939.104 44.8125 937.833 46.2292 936.875 48.0625C935.958 49.8542 935.292 51.9583 934.875 54.375C934.458 56.75 934.25 59.3125 934.25 62.0625V64.4375C934.25 67.0625 934.604 69.4583 935.312 71.625C936.021 73.7917 937.062 75.6458 938.438 77.1875C939.812 78.7292 941.479 79.9375 943.438 80.8125C945.396 81.6875 947.625 82.125 950.125 82.125C953.208 82.125 956.146 81.5417 958.938 80.375C961.729 79.1667 964.146 77.2917 966.188 74.75L975.312 85.1875C973.938 87.1875 972 89.125 969.5 91C967.042 92.8333 964.083 94.3333 960.625 95.5C957.167 96.6667 953.25 97.25 948.875 97.25ZM1022.5 77.1875C1022.5 75.9375 1022.1 74.8333 1021.31 73.875C1020.56 72.9167 1019.19 72.0417 1017.19 71.25C1015.23 70.4583 1012.46 69.6667 1008.88 68.875C1005.5 68.1667 1002.35 67.25 999.438 66.125C996.521 64.9583 993.979 63.5625 991.812 61.9375C989.646 60.2708 987.958 58.3125 986.75 56.0625C985.542 53.7708 984.938 51.1667 984.938 48.25C984.938 45.4167 985.542 42.7292 986.75 40.1875C988 37.6458 989.792 35.3958 992.125 33.4375C994.5 31.4792 997.375 29.9375 1000.75 28.8125C1004.17 27.6875 1008.04 27.125 1012.38 27.125C1018.33 27.125 1023.48 28.0625 1027.81 29.9375C1032.15 31.7708 1035.48 34.3542 1037.81 37.6875C1040.15 40.9792 1041.31 44.75 1041.31 49H1021.81C1021.81 47.25 1021.48 45.7292 1020.81 44.4375C1020.15 43.1458 1019.12 42.1458 1017.75 41.4375C1016.38 40.6875 1014.56 40.3125 1012.31 40.3125C1010.56 40.3125 1009.02 40.625 1007.69 41.25C1006.4 41.8333 1005.38 42.6458 1004.62 43.6875C1003.92 44.7292 1003.56 45.9375 1003.56 47.3125C1003.56 48.2708 1003.77 49.1458 1004.19 49.9375C1004.65 50.6875 1005.33 51.3958 1006.25 52.0625C1007.21 52.6875 1008.44 53.25 1009.94 53.75C1011.48 54.25 1013.35 54.7292 1015.56 55.1875C1020.27 56.0625 1024.56 57.2917 1028.44 58.875C1032.35 60.4583 1035.48 62.6458 1037.81 65.4375C1040.19 68.2292 1041.38 71.9167 1041.38 76.5C1041.38 79.5 1040.69 82.25 1039.31 84.75C1037.98 87.25 1036.04 89.4375 1033.5 91.3125C1030.96 93.1875 1027.92 94.6458 1024.38 95.6875C1020.83 96.7292 1016.83 97.25 1012.38 97.25C1006 97.25 1000.6 96.1042 996.188 93.8125C991.771 91.5208 988.438 88.6458 986.188 85.1875C983.979 81.6875 982.875 78.1042 982.875 74.4375H1001.19C1001.27 76.6875 1001.83 78.5208 1002.88 79.9375C1003.96 81.3542 1005.35 82.3958 1007.06 83.0625C1008.77 83.6875 1010.69 84 1012.81 84C1014.94 84 1016.71 83.7083 1018.12 83.125C1019.54 82.5417 1020.62 81.75 1021.38 80.75C1022.12 79.7083 1022.5 78.5208 1022.5 77.1875Z"/>
</mask>
<path d="M10.25 5V1H4.61061L6.47489 6.32233L10.25 5ZM27.125 5L30.9164 3.72526L30.0002 1H27.125V5ZM49 70.0625L45.2086 71.3372L49.0054 82.6302L52.7925 71.334L49 70.0625ZM70.8125 5V1H67.9347L67.02 3.72853L70.8125 5ZM87.6875 5L91.4626 6.32233L93.3269 1H87.6875V5ZM55.8125 96V100H58.6497L59.5876 97.3223L55.8125 96ZM42.125 96L38.3499 97.3223L39.2878 100H42.125V96ZM0.5 5V1H-3.5V5H0.5ZM17.6875 5L21.683 4.81115L21.5029 1H17.6875V5ZM20.875 72.4375H24.875V72.343L24.8705 72.2486L20.875 72.4375ZM20.875 96V100H24.875V96H20.875ZM0.5 96H-3.5V100H0.5V96ZM80.25 5V1H76.4346L76.2545 4.81115L80.25 5ZM97.5 5H101.5V1H97.5V5ZM97.5 96V100H101.5V96H97.5ZM77.0625 96H73.0625V100H77.0625V96ZM77.0625 72.4375L73.067 72.2486L73.0625 72.343V72.4375H77.0625ZM10.25 9H27.125V1H10.25V9ZM23.3336 6.27474L45.2086 71.3372L52.7914 68.7878L30.9164 3.72526L23.3336 6.27474ZM52.7925 71.334L74.605 6.27147L67.02 3.72853L45.2075 68.791L52.7925 71.334ZM70.8125 9H87.6875V1H70.8125V9ZM83.9124 3.67767L52.0374 94.6777L59.5876 97.3223L91.4626 6.32233L83.9124 3.67767ZM55.8125 92H42.125V100H55.8125V92ZM45.9001 94.6777L14.0251 3.67767L6.47489 6.32233L38.3499 97.3223L45.9001 94.6777ZM0.5 9H17.6875V1H0.5V9ZM13.692 5.18885L16.8795 72.6264L24.8705 72.2486L21.683 4.81115L13.692 5.18885ZM16.875 72.4375V96H24.875V72.4375H16.875ZM20.875 92H0.5V100H20.875V92ZM4.5 96V5H-3.5V96H4.5ZM80.25 9H97.5V1H80.25V9ZM93.5 5V96H101.5V5H93.5ZM97.5 92H77.0625V100H97.5V92ZM81.0625 96V72.4375H73.0625V96H81.0625ZM81.058 72.6264L84.2455 5.18885L76.2545 4.81115L73.067 72.2486L81.058 72.6264ZM151.312 79.6875H147.312V79.8405L147.324 79.9931L151.312 79.6875ZM151.312 28.375V24.375H147.312V28.375H151.312ZM170.938 28.375H174.938V24.375H170.938V28.375ZM170.938 96V100H174.938V96H170.938ZM152.562 96L148.574 96.3056L148.857 100H152.562V96ZM153.375 65.875L153.282 61.8761L149.375 61.9669V65.875H153.375ZM158.75 65.75H162.75V61.6559L158.657 61.7511L158.75 65.75ZM157.125 78.3125L153.276 77.2247L153.27 77.2441L153.265 77.2636L157.125 78.3125ZM152.375 88.3125L149.175 85.9125L149.164 85.9277L149.152 85.9429L152.375 88.3125ZM144.562 94.9375L146.351 98.5152L146.361 98.5105L146.37 98.5056L144.562 94.9375ZM124.562 95.875L123.246 99.6522L123.28 99.6641L123.315 99.6754L124.562 95.875ZM117.438 91.4375L114.58 94.2366L114.594 94.2513L114.609 94.2659L117.438 91.4375ZM112.812 83.625L109.023 84.9047L109.025 84.9122L109.028 84.9198L112.812 83.625ZM111.188 28.375V24.375H107.188V28.375H111.188ZM130.688 28.375H134.688V24.375H130.688V28.375ZM131.312 76.75L127.518 78.0149L127.544 78.0923L127.573 78.1686L131.312 76.75ZM133.125 79.75L130.221 82.501L130.258 82.5402L130.297 82.5784L133.125 79.75ZM136 81.5L134.735 85.2947L134.755 85.3015L134.776 85.3081L136 81.5ZM147.938 79.9375L150.282 83.1784L150.288 83.174L150.294 83.1695L147.938 79.9375ZM152.125 74.125L148.337 72.8408L148.33 72.8603L148.324 72.8798L152.125 74.125ZM155.312 79.6875V28.375H147.312V79.6875H155.312ZM151.312 32.375H170.938V24.375H151.312V32.375ZM166.938 28.375V96H174.938V28.375H166.938ZM170.938 92H152.562V100H170.938V92ZM156.551 95.6944L155.301 79.3819L147.324 79.9931L148.574 96.3056L156.551 95.6944ZM153.468 69.8739L158.843 69.7489L158.657 61.7511L153.282 61.8761L153.468 69.8739ZM154.75 65.75C154.75 69.9743 154.246 73.7908 153.276 77.2247L160.974 79.4003C162.17 75.1676 162.75 70.609 162.75 65.75H154.75ZM153.265 77.2636C152.34 80.668 150.962 83.53 149.175 85.9125L155.575 90.7125C158.038 87.4283 159.827 83.6237 160.985 79.3614L153.265 77.2636ZM149.152 85.9429C147.439 88.2735 145.318 90.0704 142.755 91.3694L146.37 98.5056C150.057 96.638 153.145 94.0182 155.598 90.6821L149.152 85.9429ZM142.774 91.3598C140.345 92.5743 137.375 93.25 133.75 93.25V101.25C138.375 101.25 142.614 100.384 146.351 98.5152L142.774 91.3598ZM133.75 93.25C130.784 93.25 128.149 92.8426 125.81 92.0746L123.315 99.6754C126.559 100.741 130.049 101.25 133.75 101.25V93.25ZM125.879 92.0978C123.68 91.3317 121.827 90.1701 120.266 88.6091L114.609 94.2659C117.048 96.7049 119.945 98.5016 123.246 99.6522L125.879 92.0978ZM120.295 88.6384C118.778 87.0897 117.52 85.0285 116.597 82.3302L109.028 84.9198C110.271 88.5548 112.097 91.702 114.58 94.2366L120.295 88.6384ZM116.602 82.3453C115.694 79.6564 115.188 76.2778 115.188 72.125H107.188C107.188 76.8889 107.764 81.177 109.023 84.9047L116.602 82.3453ZM115.188 72.125V28.375H107.188V72.125H115.188ZM111.188 32.375H130.688V24.375H111.188V32.375ZM126.688 28.375V72.25H134.688V28.375H126.688ZM126.688 72.25C126.688 74.2977 126.929 76.2481 127.518 78.0149L135.107 75.4851C134.863 74.7519 134.688 73.7023 134.688 72.25H126.688ZM127.573 78.1686C128.184 79.782 129.046 81.2607 130.221 82.501L136.029 76.999C135.704 76.656 135.357 76.1347 135.052 75.3314L127.573 78.1686ZM130.297 82.5784C131.553 83.8351 133.057 84.7353 134.735 85.2947L137.265 77.7053C136.693 77.5147 136.28 77.2482 135.953 76.9216L130.297 82.5784ZM134.776 85.3081C136.383 85.8247 138.072 86.0625 139.812 86.0625V78.0625C138.803 78.0625 137.95 77.9253 137.224 77.6919L134.776 85.3081ZM139.812 86.0625C143.763 86.0625 147.404 85.2601 150.282 83.1784L145.593 76.6966C144.554 77.4482 142.779 78.0625 139.812 78.0625V86.0625ZM150.294 83.1695C152.992 81.2025 154.881 78.5609 155.926 75.3702L148.324 72.8798C147.786 74.5224 146.883 75.7558 145.581 76.7055L150.294 83.1695ZM155.913 75.4092C156.909 72.4731 157.375 69.2801 157.375 65.875H149.375C149.375 68.5532 149.008 70.8603 148.337 72.8408L155.913 75.4092ZM218.438 73.875L215.287 76.3402L215.32 76.3818L215.354 76.4225L218.438 73.875ZM214.312 71.25L212.813 74.9584L212.827 74.9639L212.84 74.9692L214.312 71.25ZM206 68.875L206.863 64.9692L206.842 64.9646L206.822 64.9603L206 68.875ZM196.562 66.125L195.077 69.8389L195.1 69.8481L195.123 69.857L196.562 66.125ZM188.938 61.9375L186.499 65.108L186.518 65.1229L186.537 65.1375L188.938 61.9375ZM183.875 56.0625L180.337 57.9281L180.344 57.9416L180.351 57.955L183.875 56.0625ZM183.875 40.1875L180.286 38.4222L180.274 38.4461L180.262 38.4701L183.875 40.1875ZM189.25 33.4375L186.705 30.3513L186.692 30.3624L186.679 30.3736L189.25 33.4375ZM197.875 28.8125L196.624 25.0132L196.617 25.0155L196.61 25.0178L197.875 28.8125ZM224.938 29.9375L223.349 33.6086L223.364 33.615L223.379 33.6214L224.938 29.9375ZM234.938 37.6875L231.661 39.9813L231.667 39.9911L231.674 40.0007L234.938 37.6875ZM238.438 49V53H242.438V49H238.438ZM218.938 49H214.938V53H218.938V49ZM214.875 41.4375L212.96 44.9491L213.001 44.9717L213.043 44.9934L214.875 41.4375ZM204.812 41.25L206.459 44.8955L206.485 44.8838L206.51 44.8718L204.812 41.25ZM201.75 43.6875L198.504 41.3503L198.472 41.3939L198.442 41.4383L201.75 43.6875ZM201.312 49.9375L197.773 51.8005L197.833 51.9139L197.899 52.0233L201.312 49.9375ZM203.375 52.0625L201.022 55.2974L201.105 55.3573L201.19 55.4129L203.375 52.0625ZM207.062 53.75L205.798 57.5447L205.813 57.5499L205.828 57.5549L207.062 53.75ZM212.688 55.1875L211.875 59.104L211.916 59.1125L211.957 59.1202L212.688 55.1875ZM225.562 58.875L224.05 62.5778L224.056 62.5806L224.063 62.5834L225.562 58.875ZM234.938 65.4375L231.868 68.0027L231.88 68.0161L231.891 68.0294L234.938 65.4375ZM236.438 84.75L232.933 82.8223L232.92 82.8449L232.908 82.8676L236.438 84.75ZM183.312 85.1875L179.93 87.322L179.944 87.3455L179.96 87.3689L183.312 85.1875ZM180 74.4375V70.4375H176V74.4375H180ZM198.312 74.4375L202.31 74.2895L202.167 70.4375H198.312V74.4375ZM200 79.9375L196.777 82.3071L196.8 82.3374L196.823 82.3673L200 79.9375ZM204.188 83.0625L202.733 86.7888L202.773 86.8043L202.813 86.819L204.188 83.0625ZM218.5 80.75L221.7 83.15L221.723 83.1188L221.746 83.0872L218.5 80.75ZM223.625 77.1875C223.625 75.0134 222.909 73.0071 221.521 71.3275L215.354 76.4225C215.549 76.6596 215.625 76.8616 215.625 77.1875H223.625ZM221.588 71.4098C220.179 69.6105 218.007 68.4102 215.785 67.5308L212.84 74.9692C214.618 75.6731 215.196 76.2228 215.287 76.3402L221.588 71.4098ZM215.812 67.5416C213.55 66.6275 210.53 65.7794 206.863 64.9692L205.137 72.7808C208.637 73.554 211.158 74.2892 212.813 74.9584L215.812 67.5416ZM206.822 64.9603C203.636 64.2917 200.699 63.4331 198.002 62.393L195.123 69.857C198.26 71.0669 201.614 72.0417 205.178 72.7897L206.822 64.9603ZM198.048 62.4111C195.407 61.3546 193.183 60.1214 191.338 58.7375L186.537 65.1375C189.026 67.0036 191.885 68.5621 195.077 69.8389L198.048 62.4111ZM191.376 58.767C189.626 57.4203 188.321 55.8877 187.399 54.17L180.351 57.955C181.845 60.7373 183.916 63.1214 186.499 65.108L191.376 58.767ZM187.413 54.1969C186.545 52.5494 186.062 50.5994 186.062 48.25H178.062C178.062 51.734 178.789 54.9923 180.337 57.9281L187.413 54.1969ZM186.062 48.25C186.062 46.0066 186.536 43.9063 187.488 41.9049L180.262 38.4701C178.797 41.5521 178.062 44.8267 178.062 48.25H186.062ZM187.464 41.9528C188.451 39.9468 189.881 38.1297 191.821 36.5014L186.679 30.3736C183.952 32.662 181.799 35.3448 180.286 38.4222L187.464 41.9528ZM191.795 36.5237C193.736 34.9229 196.16 33.6006 199.14 32.6072L196.61 25.0178C192.84 26.2744 189.514 28.0355 186.705 30.3513L191.795 36.5237ZM199.126 32.6118C202.066 31.6437 205.508 31.125 209.5 31.125V23.125C204.826 23.125 200.517 23.7313 196.624 25.0132L199.126 32.6118ZM209.5 31.125C215.05 31.125 219.63 31.9994 223.349 33.6086L226.526 26.2664C221.578 24.1256 215.867 23.125 209.5 23.125V31.125ZM223.379 33.6214C227.131 35.2086 229.822 37.3549 231.661 39.9813L238.214 35.3937C235.386 31.3535 231.411 28.333 226.496 26.2536L223.379 33.6214ZM231.674 40.0007C233.502 42.579 234.438 45.5319 234.438 49H242.438C242.438 43.9681 241.04 39.3794 238.201 35.3743L231.674 40.0007ZM238.438 45H218.938V53H238.438V45ZM222.938 49C222.938 46.7407 222.505 44.5663 221.492 42.6029L214.383 46.2721C214.703 46.892 214.938 47.7593 214.938 49H222.938ZM221.492 42.6029C220.419 40.5238 218.771 38.9449 216.707 37.8816L213.043 44.9934C213.729 45.3468 214.123 45.7679 214.383 46.2721L221.492 42.6029ZM216.79 37.9259C214.627 36.7459 212.083 36.3125 209.438 36.3125V44.3125C211.292 44.3125 212.373 44.6291 212.96 44.9491L216.79 37.9259ZM209.438 36.3125C207.21 36.3125 205.07 36.7116 203.115 37.6282L206.51 44.8718C207.221 44.5384 208.165 44.3125 209.438 44.3125V36.3125ZM203.166 37.6045C201.304 38.4455 199.705 39.6821 198.504 41.3503L204.996 46.0247C205.295 45.6096 205.738 45.2212 206.459 44.8955L203.166 37.6045ZM198.442 41.4383C197.242 43.2041 196.688 45.2121 196.688 47.3125H204.688C204.688 46.6629 204.842 46.2542 205.058 45.9367L198.442 41.4383ZM196.688 47.3125C196.688 48.8725 197.032 50.3938 197.773 51.8005L204.852 48.0745C204.759 47.8979 204.688 47.6692 204.688 47.3125H196.688ZM197.899 52.0233C198.699 53.3319 199.798 54.4069 201.022 55.2974L205.728 48.8276C205.119 48.3848 204.843 48.0431 204.726 47.8517L197.899 52.0233ZM201.19 55.4129C202.52 56.2806 204.087 56.9745 205.798 57.5447L208.327 49.9553C207.038 49.5255 206.146 49.0944 205.56 48.7121L201.19 55.4129ZM205.828 57.5549C207.55 58.1132 209.575 58.6267 211.875 59.104L213.5 51.271C211.384 50.8317 209.658 50.3868 208.297 49.9451L205.828 57.5549ZM211.957 59.1202C216.435 59.9524 220.46 61.111 224.05 62.5778L227.075 55.1722C222.915 53.4723 218.357 52.1726 213.418 51.2548L211.957 59.1202ZM224.063 62.5834C227.469 63.9603 230.02 65.7911 231.868 68.0027L238.007 62.8723C235.189 59.5006 231.489 56.9563 227.062 55.1666L224.063 62.5834ZM231.891 68.0294C233.508 69.9305 234.5 72.621 234.5 76.5H242.5C242.5 71.2123 241.117 66.5278 237.984 62.8456L231.891 68.0294ZM234.5 76.5C234.5 78.8619 233.966 80.9436 232.933 82.8223L239.942 86.6777C241.659 83.5564 242.5 80.1381 242.5 76.5H234.5ZM232.908 82.8676C231.886 84.784 230.368 86.5315 228.25 88.0936L233 94.5314C235.965 92.3435 238.322 89.716 239.967 86.6324L232.908 82.8676ZM228.25 88.0936C226.142 89.6488 223.539 90.9184 220.371 91.85L222.629 99.525C226.544 98.3733 230.024 96.7262 233 94.5314L228.25 88.0936ZM220.371 91.85C217.263 92.7643 213.653 93.25 209.5 93.25V101.25C214.264 101.25 218.654 100.694 222.629 99.525L220.371 91.85ZM209.5 93.25C203.591 93.25 198.865 92.187 195.155 90.262L191.47 97.363C196.594 100.021 202.659 101.25 209.5 101.25V93.25ZM195.155 90.262C191.225 88.2231 188.468 85.7768 186.665 83.0061L179.96 87.3689C182.657 91.5148 186.566 94.8185 191.47 97.363L195.155 90.262ZM186.695 83.053C184.837 80.1075 184 77.2546 184 74.4375H176C176 78.9537 177.371 83.2675 179.93 87.322L186.695 83.053ZM180 78.4375H198.312V70.4375H180V78.4375ZM194.315 74.5855C194.42 77.4132 195.143 80.0847 196.777 82.3071L203.223 77.5679C202.773 76.9569 202.372 75.9618 202.31 74.2895L194.315 74.5855ZM196.823 82.3673C198.364 84.3828 200.363 85.8638 202.733 86.7888L205.642 79.3362C204.595 78.9279 203.803 78.3255 203.177 77.5077L196.823 82.3673ZM202.813 86.819C205.029 87.6297 207.421 88 209.938 88V80C208.204 80 206.763 79.7453 205.562 79.306L202.813 86.819ZM209.938 88C212.397 88 214.725 87.667 216.773 86.8237L213.727 79.4263C212.942 79.7497 211.728 80 209.938 80V88ZM216.773 86.8237C218.706 86.0279 220.43 84.843 221.7 83.15L215.3 78.35C215.07 78.657 214.628 79.0554 213.727 79.4263L216.773 86.8237ZM221.746 83.0872C223.006 81.3372 223.625 79.325 223.625 77.1875H215.625C215.625 77.7167 215.494 78.0795 215.254 78.4128L221.746 83.0872ZM269.938 28.375H273.938V24.375H269.938V28.375ZM269.938 96V100H273.938V96H269.938ZM250.375 96H246.375V100H250.375V96ZM250.375 28.375V24.375H246.375V28.375H250.375ZM252.188 3.9375L254.856 6.91684L254.874 6.90158L254.89 6.88612L252.188 3.9375ZM267.938 3.9375L265.235 6.88612L265.267 6.91541L265.299 6.944L267.938 3.9375ZM267.938 17.8125L270.606 20.7918L270.61 20.7887L267.938 17.8125ZM252.188 17.8125L249.485 20.7611L249.501 20.7766L249.519 20.7918L252.188 17.8125ZM265.938 28.375V96H273.938V28.375H265.938ZM269.938 92H250.375V100H269.938V92ZM254.375 96V28.375H246.375V96H254.375ZM250.375 32.375H269.938V24.375H250.375V32.375ZM253.188 10.875C253.188 9.10782 253.755 7.90362 254.856 6.91684L249.519 0.958159C246.62 3.55472 245.188 6.97551 245.188 10.875H253.188ZM254.89 6.88612C256.012 5.85827 257.604 5.1875 260.062 5.1875V-2.8125C256.021 -2.8125 252.363 -1.64994 249.485 0.988883L254.89 6.88612ZM260.062 5.1875C262.521 5.1875 264.113 5.85827 265.235 6.88612L270.64 0.988883C267.762 -1.64994 264.104 -2.8125 260.062 -2.8125V5.1875ZM265.299 6.944C266.434 7.93971 267 9.13661 267 10.875H275C275 6.94672 273.525 3.51862 270.576 0.930997L265.299 6.944ZM267 10.875C267 12.5537 266.445 13.7766 265.265 14.8363L270.61 20.7887C273.513 18.1818 275 14.7797 275 10.875H267ZM265.269 14.8332C264.149 15.8356 262.545 16.5 260.062 16.5V24.5C264.08 24.5 267.726 23.3727 270.606 20.7918L265.269 14.8332ZM260.062 16.5C257.58 16.5 255.976 15.8356 254.856 14.8332L249.519 20.7918C252.399 23.3727 256.045 24.5 260.062 24.5V16.5ZM254.89 14.8639C253.744 13.8127 253.188 12.5823 253.188 10.875H245.188C245.188 14.7511 246.631 18.1456 249.485 20.7611L254.89 14.8639ZM321.25 77.5625L317.82 75.5045L317.811 75.5194L317.802 75.5344L321.25 77.5625ZM322.562 72.3125V68.3125H318.562V72.3125H322.562ZM340.938 72.3125H344.938V68.3125H340.938V72.3125ZM337.125 85.3125L333.814 83.0683L333.805 83.081L333.797 83.0937L337.125 85.3125ZM327 94.125L328.761 97.7167L328.775 97.7098L328.789 97.7027L327 94.125ZM298.875 94.6875L297.243 98.3395L297.259 98.3468L297.276 98.3539L298.875 94.6875ZM283.125 76.5L279.304 77.6844L279.311 77.7074L279.319 77.7303L283.125 76.5ZM283.125 47.9375L279.315 46.7184L279.31 46.7357L279.304 46.7531L283.125 47.9375ZM298.812 29.75L300.426 33.4101L300.435 33.4061L300.444 33.402L298.812 29.75ZM327.25 30.3125L325.461 33.8902L325.468 33.8937L325.475 33.8971L327.25 30.3125ZM337.312 39.5L333.889 41.5685L333.894 41.5764L333.898 41.5843L337.312 39.5ZM340.938 53.8125V57.8125H344.938V53.8125H340.938ZM322.562 53.8125H318.562V57.8125H322.562V53.8125ZM321.375 48L317.698 49.5757L317.721 49.6291L317.746 49.6818L321.375 48ZM317.875 43.875L315.636 47.1894L315.687 47.224L315.739 47.257L317.875 43.875ZM306.25 43.875L308.469 47.2032L308.479 47.1963L308.489 47.1894L306.25 43.875ZM301.188 54.1875L305.154 54.7017L305.155 54.6925L301.188 54.1875ZM301.188 70.375L297.218 70.8711L297.22 70.88L301.188 70.375ZM302.812 76.4375L299.168 78.0862L299.184 78.1219L299.201 78.1572L302.812 76.4375ZM312.25 86.0625C314.842 86.0625 317.304 85.5683 319.515 84.4333L315.86 77.3167C314.987 77.765 313.825 78.0625 312.25 78.0625V86.0625ZM319.515 84.4333C321.692 83.3151 323.459 81.6968 324.698 79.5906L317.802 75.5344C317.375 76.2615 316.766 76.8515 315.86 77.3167L319.515 84.4333ZM324.68 79.6205C325.997 77.4262 326.562 74.9332 326.562 72.3125H318.562C318.562 73.7752 318.253 74.7821 317.82 75.5045L324.68 79.6205ZM322.562 76.3125H340.938V68.3125H322.562V76.3125ZM336.938 72.3125C336.938 76.5005 335.868 80.0374 333.814 83.0683L340.436 87.5567C343.465 83.0876 344.938 77.9578 344.938 72.3125H336.938ZM333.797 83.0937C331.704 86.2327 328.874 88.7161 325.211 90.5473L328.789 97.7027C333.626 95.2839 337.546 91.8923 340.453 87.5313L333.797 83.0937ZM325.239 90.5333C321.603 92.3157 317.426 93.25 312.625 93.25V101.25C318.491 101.25 323.897 100.101 328.761 97.7167L325.239 90.5333ZM312.625 93.25C307.803 93.25 303.785 92.4652 300.474 91.0211L297.276 98.3539C301.798 100.326 306.947 101.25 312.625 101.25V93.25ZM300.507 91.0355C297.114 89.5194 294.341 87.4401 292.125 84.8022L286 89.9478C289.034 93.5599 292.803 96.3556 297.243 98.3395L300.507 91.0355ZM292.125 84.8022C289.853 82.0967 288.116 78.9344 286.931 75.2697L279.319 77.7303C280.801 82.3156 283.022 86.4033 286 89.9478L292.125 84.8022ZM286.946 75.3156C285.785 71.5714 285.188 67.4747 285.188 63H277.188C277.188 68.192 277.882 73.0952 279.304 77.6844L286.946 75.3156ZM285.188 63V61.375H277.188V63H285.188ZM285.188 61.375C285.188 56.9457 285.784 52.8693 286.946 49.1219L279.304 46.7531C277.883 51.3391 277.188 56.221 277.188 61.375H285.188ZM286.935 49.1566C288.121 45.4494 289.858 42.2714 292.125 39.5728L286 34.4272C283.017 37.9786 280.796 42.0923 279.315 46.7184L286.935 49.1566ZM292.125 39.5728C294.342 36.9341 297.089 34.8812 300.426 33.4101L297.199 26.0899C292.786 28.0355 289.033 30.8159 286 34.4272L292.125 39.5728ZM300.444 33.402C303.746 31.9268 307.752 31.125 312.562 31.125V23.125C306.873 23.125 301.712 24.0732 297.181 26.098L300.444 33.402ZM312.562 31.125C317.586 31.125 321.852 32.0856 325.461 33.8902L329.039 26.7348C324.148 24.2894 318.622 23.125 312.562 23.125V31.125ZM325.475 33.8971C329.102 35.6929 331.876 38.2374 333.889 41.5685L340.736 37.4315C337.915 32.7626 333.981 29.1821 329.025 26.7279L325.475 33.8971ZM333.898 41.5843C335.86 44.7977 336.938 48.8139 336.938 53.8125H344.938C344.938 47.6444 343.598 42.1189 340.727 37.4157L333.898 41.5843ZM340.938 49.8125H322.562V57.8125H340.938V49.8125ZM326.562 53.8125C326.562 51.1523 326.074 48.6274 325.004 46.3182L317.746 49.6818C318.259 50.7893 318.562 52.1394 318.562 53.8125H326.562ZM325.052 46.4243C323.988 43.9435 322.291 41.933 320.011 40.493L315.739 47.257C316.626 47.817 317.262 48.5565 317.698 49.5757L325.052 46.4243ZM320.114 40.5606C317.772 38.9781 315.028 38.3125 312.125 38.3125V46.3125C313.805 46.3125 314.894 46.6886 315.636 47.1894L320.114 40.5606ZM312.125 38.3125C309.172 38.3125 306.375 38.9631 304.011 40.5606L308.489 47.1894C309.208 46.7035 310.328 46.3125 312.125 46.3125V38.3125ZM304.031 40.5468C301.844 42.0052 300.225 44.021 299.154 46.4458L306.471 49.6792C306.983 48.5207 307.656 47.7448 308.469 47.2032L304.031 40.5468ZM299.154 46.4458C298.181 48.6479 297.551 51.0741 297.22 53.6825L305.155 54.6925C305.407 52.7176 305.861 51.0605 306.471 49.6792L299.154 46.4458ZM297.221 53.6733C296.904 56.1127 296.75 58.6815 296.75 61.375H304.75C304.75 58.9852 304.887 56.7623 305.154 54.7017L297.221 53.6733ZM296.75 61.375V63H304.75V61.375H296.75ZM296.75 63C296.75 65.7332 296.904 68.3581 297.218 70.8711L305.157 69.8789C304.887 67.7253 304.75 65.4335 304.75 63H296.75ZM297.22 70.88C297.552 73.4895 298.183 75.9084 299.168 78.0862L306.457 74.7888C305.859 73.4666 305.407 71.8438 305.155 69.87L297.22 70.88ZM299.201 78.1572C300.321 80.5085 301.948 82.46 304.094 83.8907L308.531 77.2343C307.677 76.665 306.971 75.8665 306.424 74.7178L299.201 78.1572ZM304.094 83.8907C306.45 85.4615 309.281 86.0625 312.25 86.0625V78.0625C310.302 78.0625 309.175 77.6635 308.531 77.2343L304.094 83.8907ZM404.562 41.875L402.865 38.2532L402.842 38.2636L402.82 38.2744L404.562 41.875ZM401.562 44.5625L398.143 42.4866L398.116 42.5319L398.09 42.5779L401.562 44.5625ZM400.562 48.875V52.875H404.562V48.875H400.562ZM381.062 48.875H377.062V52.875H381.062V48.875ZM389 33.4375L386.551 30.2746L386.539 30.2843L386.526 30.294L389 33.4375ZM398.25 28.8125L399.408 32.6413L399.428 32.6352L399.448 32.6288L398.25 28.8125ZM424.438 29.8125L422.844 33.4814L422.866 33.491L422.889 33.5004L424.438 29.8125ZM434.312 37.75L431.008 40.0046L431.015 40.0137L431.021 40.0228L434.312 37.75ZM438.625 88.9375L434.7 89.7085L434.708 89.7494L434.717 89.7902L438.625 88.9375ZM440.75 94.9375H444.75V93.9321L444.275 93.0462L440.75 94.9375ZM440.75 96V100H444.75V96H440.75ZM421.062 96L417.44 97.6958L418.518 100H421.062V96ZM419 88.75L415.048 89.371L415.05 89.3797L419 88.75ZM420.75 54.75L424.75 54.7035L424.704 50.75H420.75V54.75ZM420.875 65.5V69.5H424.922L424.875 65.4535L420.875 65.5ZM405.562 66.3125L404.268 62.5278L404.252 62.5332L404.237 62.5387L405.562 66.3125ZM401.812 68.5625L404.577 71.4531L404.61 71.4224L404.641 71.3909L401.812 68.5625ZM399.688 71.8125L395.932 70.4355L395.919 70.4719L395.906 70.5085L399.688 71.8125ZM400.062 79.5625L396.621 81.6017L396.638 81.6304L396.656 81.6589L400.062 79.5625ZM413.375 81.5625L411.46 78.0509L411.443 78.0602L411.426 78.0697L413.375 81.5625ZM417.625 77.9375L420.893 80.2442L420.909 80.222L420.924 80.1996L417.625 77.9375ZM419.125 73.875L422.59 71.8761L415.125 58.9372V73.875H419.125ZM423.812 82L427.46 83.6415L428.3 81.7745L427.277 80.0011L423.812 82ZM421.062 87.1875L424.464 89.2929L424.475 89.2751L424.485 89.2572L421.062 87.1875ZM416.938 92.125L419.613 95.0982L419.634 95.0799L419.654 95.0614L416.938 92.125ZM410.875 95.8125L409.378 92.1031L409.367 92.1077L409.355 92.1124L410.875 95.8125ZM390.875 94.6875L389.069 98.2566L389.086 98.2653L389.103 98.2738L390.875 94.6875ZM382.562 87.5L379.241 89.7293L379.252 89.7449L379.262 89.7604L382.562 87.5ZM387.25 60.5625L384.891 57.332L384.879 57.341L384.867 57.3501L387.25 60.5625ZM397.125 56.25L398.066 60.1377L398.086 60.133L398.105 60.1282L397.125 56.25ZM422.312 79.875V50.875H414.312V79.875H422.312ZM422.312 50.875C422.312 48.4405 421.942 46.1263 421.052 44.0493L413.698 47.2007C414.058 48.0404 414.312 49.2261 414.312 50.875H422.312ZM421.052 44.0493C420.108 41.8482 418.59 40.0655 416.557 38.7955L412.318 45.5795C412.952 45.9761 413.392 46.4851 413.698 47.2007L421.052 44.0493ZM416.557 38.7955C414.402 37.4483 411.869 36.9375 409.25 36.9375V44.9375C410.881 44.9375 411.806 45.26 412.318 45.5795L416.557 38.7955ZM409.25 36.9375C406.996 36.9375 404.832 37.3311 402.865 38.2532L406.26 45.4968C406.96 45.1689 407.92 44.9375 409.25 44.9375V36.9375ZM402.82 38.2744C400.872 39.2172 399.273 40.6259 398.143 42.4866L404.982 46.6384C405.269 46.1657 405.67 45.7828 406.305 45.4756L402.82 38.2744ZM398.09 42.5779C396.996 44.4919 396.562 46.656 396.562 48.875H404.562C404.562 47.6773 404.796 46.9665 405.035 46.5471L398.09 42.5779ZM400.562 44.875H381.062V52.875H400.562V44.875ZM385.062 48.875C385.062 46.4621 385.601 44.2678 386.668 42.231L379.582 38.519C377.899 41.7322 377.062 45.2046 377.062 48.875H385.062ZM386.668 42.231C387.758 40.15 389.334 38.2643 391.474 36.581L386.526 30.294C383.582 32.6107 381.242 35.35 379.582 38.519L386.668 42.231ZM391.449 36.6004C393.594 34.9396 396.224 33.6037 399.408 32.6413L397.092 24.9837C393.109 26.1879 389.573 27.9354 386.551 30.2746L391.449 36.6004ZM399.448 32.6288C402.579 31.6458 406.187 31.125 410.312 31.125V23.125C405.522 23.125 401.088 23.7292 397.052 24.9962L399.448 32.6288ZM410.312 31.125C415.151 31.125 419.303 31.9432 422.844 33.4814L426.031 26.1436C421.322 24.0984 416.057 23.125 410.312 23.125V31.125ZM422.889 33.5004C426.385 34.9688 429.05 37.1351 431.008 40.0046L437.617 35.4954C434.741 31.2816 430.824 28.1562 425.986 26.1246L422.889 33.5004ZM431.021 40.0228C432.871 42.7024 433.938 46.2715 433.938 51H441.938C441.938 45.0618 440.587 39.7976 437.604 35.4772L431.021 40.0228ZM433.938 51V79.3125H441.938V51H433.938ZM433.938 79.3125C433.938 83.4989 434.169 87.004 434.7 89.7085L442.55 88.1665C442.165 86.2043 441.938 83.2927 441.938 79.3125H433.938ZM434.717 89.7902C435.28 92.371 436.101 94.7337 437.225 96.8288L444.275 93.0462C443.565 91.7246 442.97 90.0873 442.533 88.0848L434.717 89.7902ZM436.75 94.9375V96H444.75V94.9375H436.75ZM440.75 92H421.062V100H440.75V92ZM424.685 94.3042C423.971 92.7781 423.369 90.7451 422.95 88.1203L415.05 89.3797C415.548 92.5049 416.321 95.3052 417.44 97.6958L424.685 94.3042ZM422.952 88.129C422.526 85.4211 422.312 82.6704 422.312 79.875H414.312C414.312 83.0796 414.557 86.2456 415.048 89.371L422.952 88.129ZM416.75 54.7965L416.875 65.5465L424.875 65.4535L424.75 54.7035L416.75 54.7965ZM420.875 61.5H411.188V69.5H420.875V61.5ZM411.188 61.5C408.703 61.5 406.37 61.8086 404.268 62.5278L406.857 70.0972C407.922 69.7331 409.338 69.5 411.188 69.5V61.5ZM404.237 62.5387C402.244 63.2387 400.444 64.2738 398.984 65.7341L404.641 71.3909C405.097 70.9345 405.798 70.4696 406.888 70.0863L404.237 62.5387ZM399.048 65.6719C397.646 67.0126 396.6 68.6143 395.932 70.4355L403.443 73.1895C403.692 72.5107 404.062 71.9458 404.577 71.4531L399.048 65.6719ZM395.906 70.5085C395.326 72.1909 395.062 73.972 395.062 75.8125H403.062C403.062 74.7363 403.216 73.8507 403.469 73.1165L395.906 70.5085ZM395.062 75.8125C395.062 77.8666 395.57 79.8271 396.621 81.6017L403.504 77.5233C403.222 77.0479 403.062 76.5084 403.062 75.8125H395.062ZM396.656 81.6589C397.709 83.3695 399.16 84.7061 400.924 85.6509L404.701 78.5991C404.132 78.2939 403.75 77.9222 403.469 77.4661L396.656 81.6589ZM400.924 85.6509C402.76 86.6349 404.783 87.0625 406.875 87.0625V79.0625C405.883 79.0625 405.198 78.8651 404.701 78.5991L400.924 85.6509ZM406.875 87.0625C409.938 87.0625 412.811 86.4584 415.324 85.0553L411.426 78.0697C410.356 78.6666 408.895 79.0625 406.875 79.0625V87.0625ZM415.29 85.0741C417.552 83.8403 419.475 82.2525 420.893 80.2442L414.357 75.6308C413.775 76.4558 412.864 77.2847 411.46 78.0509L415.29 85.0741ZM420.924 80.1996C422.198 78.341 423.125 76.2038 423.125 73.875H415.125C415.125 74.0462 415.052 74.6173 414.326 75.6754L420.924 80.1996ZM415.66 75.8739L420.348 83.9989L427.277 80.0011L422.59 71.8761L415.66 75.8739ZM420.165 80.3585C419.49 81.8587 418.651 83.4448 417.64 85.1178L424.485 89.2572C425.641 87.3469 426.635 85.4746 427.46 83.6415L420.165 80.3585ZM417.661 85.0821C416.786 86.4958 415.65 87.8669 414.221 89.1886L419.654 95.0614C421.558 93.2998 423.172 91.3792 424.464 89.2929L417.661 85.0821ZM414.262 89.1518C412.988 90.2985 411.381 91.295 409.378 92.1031L412.372 99.5219C415.119 98.4134 417.554 96.9515 419.613 95.0982L414.262 89.1518ZM409.355 92.1124C407.627 92.8224 405.359 93.25 402.438 93.25V101.25C406.099 101.25 409.457 100.719 412.395 99.5126L409.355 92.1124ZM402.438 93.25C398.739 93.25 395.5 92.5106 392.647 91.1012L389.103 98.2738C393.167 100.281 397.636 101.25 402.438 101.25V93.25ZM392.681 91.1184C389.791 89.656 387.546 87.6976 385.863 85.2396L379.262 89.7604C381.745 93.3857 385.042 96.219 389.069 98.2566L392.681 91.1184ZM385.884 85.2707C384.32 82.9418 383.5 80.2313 383.5 77H375.5C375.5 81.6854 376.721 85.9749 379.241 89.7293L385.884 85.2707ZM383.5 77C383.5 73.9493 384.054 71.3998 385.058 69.263L377.817 65.862C376.237 69.2252 375.5 72.9673 375.5 77H383.5ZM385.058 69.263C386.052 67.1467 387.549 65.3215 389.633 63.7749L384.867 57.3501C381.784 59.6369 379.406 62.4783 377.817 65.862L385.058 69.263ZM389.609 63.793C391.716 62.2541 394.494 61.0025 398.066 60.1377L396.184 52.3623C391.839 53.4142 388.034 55.0375 384.891 57.332L389.609 63.793ZM398.105 60.1282C401.665 59.2288 405.947 58.75 411 58.75V50.75C405.47 50.75 400.502 51.2712 396.145 52.3718L398.105 60.1282ZM411 58.75H420.75V50.75H411V58.75ZM469.875 42.8125H473.875V42.6483L473.862 42.4846L469.875 42.8125ZM469.875 96V100H473.875V96H469.875ZM450.312 96H446.312V100H450.312V96ZM450.312 28.375V24.375H446.312V28.375H450.312ZM468.688 28.375L472.674 28.0471L472.372 24.375H468.688V28.375ZM467.312 59.8125L467.415 63.8112L471.312 63.7113V59.8125H467.312ZM462.438 59.9375H458.438V64.0414L462.54 63.9362L462.438 59.9375ZM469.625 35.9375L466.519 33.4168L466.515 33.422L469.625 35.9375ZM477.938 29.375L476.261 25.7432L476.252 25.7473L476.243 25.7515L477.938 29.375ZM504.125 32.9375L501.179 35.6431L501.208 35.6744L501.237 35.7051L504.125 32.9375ZM508.5 40.9375L504.669 42.0869L504.673 42.1002L508.5 40.9375ZM510 96V100H514V96H510ZM490.375 96H486.375V100H490.375V96ZM485.688 43.25L484.149 46.9423L484.167 46.9497L484.185 46.957L485.688 43.25ZM474.312 43.6875L476.209 47.2094L476.244 47.1907L476.278 47.1714L474.312 43.6875ZM468 52.9375L464.106 52.0213L464.098 52.0577L464.09 52.0941L468 52.9375ZM465.875 42.8125V96H473.875V42.8125H465.875ZM469.875 92H450.312V100H469.875V92ZM454.312 96V28.375H446.312V96H454.312ZM450.312 32.375H468.688V24.375H450.312V32.375ZM464.701 28.7029L465.888 43.1404L473.862 42.4846L472.674 28.0471L464.701 28.7029ZM467.21 55.8138L462.335 55.9388L462.54 63.9362L467.415 63.8112L467.21 55.8138ZM466.438 59.9375C466.438 55.1768 467.023 51.0227 468.134 47.4319L460.491 45.0681C459.102 49.5606 458.438 54.5315 458.438 59.9375H466.438ZM468.134 47.4319C469.258 43.7988 470.81 40.8328 472.735 38.453L466.515 33.422C463.856 36.7089 461.867 40.6179 460.491 45.0681L468.134 47.4319ZM472.731 38.4582C474.701 36.0309 476.996 34.2307 479.632 32.9985L476.243 25.7515C472.462 27.5193 469.216 30.0941 466.519 33.4168L472.731 38.4582ZM479.614 33.0068C482.29 31.7715 485.294 31.125 488.688 31.125V23.125C484.247 23.125 480.085 23.9785 476.261 25.7432L479.614 33.0068ZM488.688 31.125C491.467 31.125 493.91 31.5267 496.056 32.2764L498.694 24.7236C495.59 23.6399 492.242 23.125 488.688 23.125V31.125ZM496.056 32.2764C498.061 32.9764 499.751 34.0886 501.179 35.6431L507.071 30.2319C504.749 27.7031 501.939 25.857 498.694 24.7236L496.056 32.2764ZM501.237 35.7051C502.618 37.1458 503.805 39.2082 504.669 42.0869L512.331 39.7881C511.195 36.0002 509.466 32.7292 507.013 30.1699L501.237 35.7051ZM504.673 42.1002C505.522 44.8968 506 48.5395 506 53.125H514C514 48.0439 513.478 43.5615 512.327 39.7748L504.673 42.1002ZM506 53.125V96H514V53.125H506ZM510 92H490.375V100H510V92ZM494.375 96V53.0625H486.375V96H494.375ZM494.375 53.0625C494.375 49.9511 493.956 47.0295 492.746 44.6728L485.629 48.3272C486.002 49.0539 486.375 50.5072 486.375 53.0625H494.375ZM492.746 44.6728C491.536 42.3174 489.66 40.5442 487.19 39.543L484.185 46.957C484.798 47.2058 485.255 47.5993 485.629 48.3272L492.746 44.6728ZM487.226 39.5577C485.105 38.6741 482.716 38.3125 480.188 38.3125V46.3125C481.992 46.3125 483.27 46.5759 484.149 46.9423L487.226 39.5577ZM480.188 38.3125C477.363 38.3125 474.695 38.8795 472.347 40.2036L476.278 47.1714C477.18 46.6622 478.429 46.3125 480.188 46.3125V38.3125ZM472.416 40.1656C470.191 41.3638 468.367 43.0546 466.971 45.1765L473.654 49.5735C474.341 48.5288 475.184 47.7612 476.209 47.2094L472.416 40.1656ZM466.971 45.1765C465.636 47.2062 464.698 49.5081 464.106 52.0213L471.894 53.8537C472.302 52.1169 472.906 50.7104 473.654 49.5735L466.971 45.1765ZM464.09 52.0941C463.565 54.5296 463.312 57.1069 463.312 59.8125H471.312C471.312 57.6015 471.519 55.5954 471.91 53.7809L464.09 52.0941ZM562.125 80.875H558.125V81.1383L558.16 81.3994L562.125 80.875ZM562.125 0V-4H558.125V0H562.125ZM581.75 0H585.75V-4H581.75V0ZM581.75 96V100H585.75V96H581.75ZM564.125 96L560.16 96.5244L560.619 100H564.125V96ZM521.688 47.6875L517.83 46.6286L517.827 46.6415L517.823 46.6545L521.688 47.6875ZM526.75 36.75L523.519 34.3921L523.513 34.4L526.75 36.75ZM535.062 29.625L533.256 26.0564L535.062 29.625ZM556.625 29.75L554.567 33.18L554.585 33.1908L554.603 33.2015L556.625 29.75ZM564.062 37L560.714 39.1878L560.731 39.2137L560.748 39.2394L564.062 37ZM569.125 47.9375L565.301 49.1112L565.304 49.1219L569.125 47.9375ZM572.062 61.5H576.062V61.2278L576.026 60.958L572.062 61.5ZM572.062 63.75L576.027 64.281L576.062 64.0167V63.75H572.062ZM569.125 76.8125L565.326 75.5593L565.321 75.5771L565.315 75.5948L569.125 76.8125ZM564.062 87.5L560.748 85.2606L560.741 85.2707L564.062 87.5ZM556.562 94.6875L558.584 98.139L558.592 98.1347L558.599 98.1302L556.562 94.6875ZM534.938 94.6875L533.076 98.2282L533.086 98.233L533.095 98.2378L534.938 94.6875ZM526.75 87.5L523.498 89.8291L526.75 87.5ZM521.688 76.625L517.826 77.6677L517.831 77.6856L517.836 77.7035L521.688 76.625ZM540.062 70.4375L536.115 71.0835L536.121 71.1183L536.127 71.153L540.062 70.4375ZM545.688 80.625L543.469 83.9532L543.501 83.9748L543.534 83.9958L545.688 80.625ZM558.375 80.0625L560.693 83.3223L560.717 83.3054L560.74 83.2881L558.375 80.0625ZM564.125 65.9375L568.125 65.9894L568.125 65.9635V65.9375H564.125ZM560.875 46.8125L557.62 49.1375L557.642 49.1678L557.664 49.1978L560.875 46.8125ZM556.938 43.5L555.149 47.0777L555.187 47.0967L555.225 47.115L556.938 43.5ZM545.875 43.8125L548.029 47.1833L548.061 47.1623L548.094 47.1407L545.875 43.8125ZM542.188 47.875L538.679 45.9537L538.661 45.9862L538.644 46.019L542.188 47.875ZM540.125 54.0625L536.197 53.3046L536.192 53.3319L536.187 53.3593L540.125 54.0625ZM566.125 80.875V0H558.125V80.875H566.125ZM562.125 4H581.75V-4H562.125V4ZM577.75 0V96H585.75V0H577.75ZM581.75 92H564.125V100H581.75V92ZM568.09 95.4756L566.09 80.3506L558.16 81.3994L560.16 96.5244L568.09 95.4756ZM524 63V61.6875H516V63H524ZM524 61.6875C524 56.8517 524.531 52.5388 525.552 48.7205L517.823 46.6545C516.594 51.2529 516 56.2733 516 61.6875H524ZM525.545 48.7464C526.606 44.882 528.106 41.6913 529.987 39.1L523.513 34.4C520.978 37.892 519.103 41.993 517.83 46.6286L525.545 48.7464ZM529.981 39.1079C531.872 36.5167 534.161 34.5648 536.869 33.1936L533.256 26.0564C529.38 28.0185 526.128 30.8166 523.519 34.3921L529.981 39.1079ZM536.869 33.1936C539.521 31.8508 542.657 31.125 546.375 31.125V23.125C541.593 23.125 537.187 24.0658 533.256 26.0564L536.869 33.1936ZM546.375 31.125C549.678 31.125 552.361 31.8565 554.567 33.18L558.683 26.32C555.055 24.1435 550.905 23.125 546.375 23.125V31.125ZM554.603 33.2015C556.932 34.5655 558.975 36.5262 560.714 39.1878L567.411 34.8122C565.067 31.2238 562.151 28.3512 558.647 26.2985L554.603 33.2015ZM560.748 39.2394C562.574 41.9411 564.105 45.2141 565.301 49.1112L572.949 46.7638C571.562 42.2442 569.718 38.2255 567.377 34.7606L560.748 39.2394ZM565.304 49.1219C566.523 53.0541 567.459 57.3576 568.099 62.042L576.026 60.958C575.333 55.8924 574.31 51.1542 572.946 46.7531L565.304 49.1219ZM568.062 61.5V63.75H576.062V61.5H568.062ZM568.098 63.219C567.502 67.6659 566.574 71.776 565.326 75.5593L572.924 78.0657C574.342 73.7656 575.373 69.1674 576.027 64.281L568.098 63.219ZM565.315 75.5948C564.123 79.3239 562.591 82.5331 560.748 85.2606L567.377 89.7394C569.701 86.3002 571.544 82.3845 572.935 78.0302L565.315 75.5948ZM560.741 85.2707C559.01 87.8505 556.938 89.8182 554.526 91.2448L558.599 98.1302C562.104 96.0568 565.032 93.2329 567.384 89.7293L560.741 85.2707ZM554.541 91.236C552.335 92.5278 549.62 93.25 546.25 93.25V101.25C550.796 101.25 554.956 100.264 558.584 98.139L554.541 91.236ZM546.25 93.25C542.547 93.25 539.424 92.5095 536.78 91.1372L533.095 98.2378C537.034 100.282 541.453 101.25 546.25 101.25V93.25ZM536.799 91.1468C534.119 89.7382 531.86 87.7648 530.002 85.1709L523.498 89.8291C526.057 93.4019 529.256 96.2201 533.076 98.2282L536.799 91.1468ZM530.002 85.1709C528.1 82.5156 526.598 79.3269 525.539 75.5465L517.836 77.7035C519.11 82.2564 520.983 86.3177 523.498 89.8291L530.002 85.1709ZM525.549 75.5823C524.528 71.799 524 67.6125 524 63H516C516 68.2209 516.597 73.1177 517.826 77.6677L525.549 75.5823ZM535.5 61.6875V63H543.5V61.6875H535.5ZM535.5 63C535.5 65.852 535.7 68.5496 536.115 71.0835L544.01 69.7915C543.675 67.742 543.5 65.4814 543.5 63H535.5ZM536.127 71.153C536.603 73.7733 537.385 76.1905 538.519 78.356L545.606 74.644C544.907 73.3095 544.355 71.6851 543.998 69.722L536.127 71.153ZM538.519 78.356C539.716 80.6417 541.358 82.5464 543.469 83.9532L547.906 77.2968C547.017 76.7036 546.242 75.8583 545.606 74.644L538.519 78.356ZM543.534 83.9958C545.804 85.4464 548.424 86.0625 551.188 86.0625V78.0625C549.617 78.0625 548.571 77.7203 547.841 77.2542L543.534 83.9958ZM551.188 86.0625C554.712 86.0625 557.979 85.2521 560.693 83.3223L556.057 76.8027C555.021 77.5395 553.497 78.0625 551.188 78.0625V86.0625ZM560.74 83.2881C563.292 81.417 565.141 78.8804 566.343 75.8495L558.907 72.9005C558.192 74.703 557.208 75.958 556.01 76.8369L560.74 83.2881ZM566.343 75.8495C567.518 72.8875 568.078 69.5749 568.125 65.9894L560.125 65.8856C560.089 68.7168 559.649 71.0292 558.907 72.9005L566.343 75.8495ZM568.125 65.9375V59.375H560.125V65.9375H568.125ZM568.125 59.375C568.125 56.444 567.828 53.708 567.189 51.1995L559.436 53.1755C559.88 54.917 560.125 56.9726 560.125 59.375H568.125ZM567.189 51.1995C566.544 48.6719 565.537 46.3805 564.086 44.4272L557.664 49.1978C558.38 50.1612 558.997 51.4531 559.436 53.1755L567.189 51.1995ZM564.13 44.4875C562.702 42.4881 560.863 40.9336 558.65 39.885L555.225 47.115C556.178 47.5664 556.965 48.2202 557.62 49.1375L564.13 44.4875ZM558.726 39.9223C556.477 38.7976 553.963 38.3125 551.312 38.3125V46.3125C552.995 46.3125 554.231 46.6191 555.149 47.0777L558.726 39.9223ZM551.312 38.3125C548.542 38.3125 545.924 38.9726 543.656 40.4843L548.094 47.1407C548.826 46.6524 549.833 46.3125 551.312 46.3125V38.3125ZM543.721 40.4417C541.589 41.8038 539.92 43.6869 538.679 45.9537L545.696 49.7963C546.371 48.5631 547.161 47.7379 548.029 47.1833L543.721 40.4417ZM538.644 46.019C537.511 48.1815 536.714 50.6292 536.197 53.3046L544.053 54.8204C544.453 52.7458 545.03 51.0685 545.731 49.731L538.644 46.019ZM536.187 53.3593C535.723 55.9581 535.5 58.7382 535.5 61.6875H543.5C543.5 59.1368 543.693 56.8336 544.063 54.7657L536.187 53.3593ZM649.312 5H653.312V1H649.312V5ZM649.312 96V100H653.312V96H649.312ZM629 96H625V100H629V96ZM629 5V1H625V5H629ZM645.312 5V96H653.312V5H645.312ZM649.312 92H629V100H649.312V92ZM633 96V5H625V96H633ZM629 9H649.312V1H629V9ZM684.312 42.5625H688.312V42.3954L688.299 42.2289L684.312 42.5625ZM684.312 96V100H688.312V96H684.312ZM664.812 96H660.812V100H664.812V96ZM664.812 28.375V24.375H660.812V28.375H664.812ZM683.125 28.375L687.111 28.0414L686.804 24.375H683.125V28.375ZM681.812 59.8125L681.914 63.8112L685.812 63.7125V59.8125H681.812ZM676.875 59.9375H672.875V64.04L676.976 63.9362L676.875 59.9375ZM678.562 46.875L674.722 45.755L674.719 45.7682L674.715 45.7815L678.562 46.875ZM691.812 29.5625L690.042 25.9758L690.033 25.9803L690.024 25.9848L691.812 29.5625ZM711.375 28.5L709.977 32.2479L710.006 32.2584L710.034 32.2684L711.375 28.5ZM717.688 32.6875L714.734 35.3846L714.764 35.4181L714.796 35.4509L717.688 32.6875ZM721.812 40.0625L717.997 41.2645L718 41.2721L718.002 41.2797L721.812 40.0625ZM723.25 96V100H727.25V96H723.25ZM703.75 96H699.75V100H703.75V96ZM702.625 46.4375L698.974 48.071L699 48.1296L699.028 48.1874L702.625 46.4375ZM689 43.6875L690.935 47.1885L690.95 47.18L690.965 47.1714L689 43.6875ZM682.562 52.9375L678.686 51.9495L678.677 51.9853L678.669 52.0213L682.562 52.9375ZM721.25 58.8125L721.572 62.7995L725.25 62.5023V58.8125H721.25ZM715.062 59.3125H711.062V63.6488L715.385 63.2995L715.062 59.3125ZM721.562 36.375L724.757 38.7824L724.765 38.7714L724.773 38.7603L721.562 36.375ZM729.625 29.5625L727.836 25.9848L727.827 25.9894L727.818 25.9941L729.625 29.5625ZM749.562 28.5L748.225 32.2697L748.234 32.2731L748.244 32.2764L749.562 28.5ZM756.312 32.9375L753.366 35.6431L753.381 35.6593L753.396 35.6752L756.312 32.9375ZM760.75 41L756.932 42.1931L756.934 42.2L756.936 42.2068L760.75 41ZM762.312 96V100H766.312V96H762.312ZM742.688 96H738.688V100H742.688V96ZM741.562 46.375L737.928 48.045L737.946 48.0851L737.966 48.1249L741.562 46.375ZM738.438 43.1875L736.834 46.8521L736.855 46.8611L736.875 46.8698L738.438 43.1875ZM728.188 43.625L730.09 47.1438L730.126 47.1242L730.162 47.1037L728.188 43.625ZM724.312 47.125L727.567 49.45L727.583 49.4284L727.598 49.4066L724.312 47.125ZM680.312 42.5625V96H688.312V42.5625H680.312ZM684.312 92H664.812V100H684.312V92ZM668.812 96V28.375H660.812V96H668.812ZM664.812 32.375H683.125V24.375H664.812V32.375ZM679.139 28.7086L680.326 42.8961L688.299 42.2289L687.111 28.0414L679.139 28.7086ZM681.711 55.8138L676.774 55.9388L676.976 63.9362L681.914 63.8112L681.711 55.8138ZM680.875 59.9375C680.875 55.5016 681.4 51.5213 682.41 47.9685L674.715 45.7815C673.475 50.1454 672.875 54.8734 672.875 59.9375H680.875ZM682.403 47.995C683.452 44.3952 684.942 41.3597 686.83 38.8303L680.42 34.0447C677.891 37.432 676.006 41.3548 674.722 45.755L682.403 47.995ZM686.83 38.8303C688.672 36.3637 690.919 34.4815 693.601 33.1402L690.024 25.9848C686.206 27.8935 682.995 30.5946 680.42 34.0447L686.83 38.8303ZM693.583 33.1492C696.238 31.8385 699.406 31.125 703.188 31.125V23.125C698.385 23.125 693.97 24.0365 690.042 25.9758L693.583 33.1492ZM703.188 31.125C705.778 31.125 708.025 31.52 709.977 32.2479L712.773 24.7521C709.808 23.6466 706.597 23.125 703.188 23.125V31.125ZM710.034 32.2684C711.878 32.925 713.428 33.9544 714.734 35.3846L720.641 29.9904C718.447 27.5873 715.788 25.825 712.716 24.7316L710.034 32.2684ZM714.796 35.4509C716.078 36.793 717.182 38.6755 717.997 41.2645L725.628 38.8605C724.527 35.3662 722.88 32.332 720.579 29.9241L714.796 35.4509ZM718.002 41.2797C718.801 43.7792 719.25 46.95 719.25 50.875H727.25C727.25 46.3833 726.741 42.3458 725.623 38.8453L718.002 41.2797ZM719.25 50.875V96H727.25V50.875H719.25ZM723.25 92H703.75V100H723.25V92ZM707.75 96V53.25H699.75V96H707.75ZM707.75 53.25C707.75 50.0335 707.367 47.041 706.222 44.6876L699.028 48.1874C699.383 48.9173 699.75 50.4665 699.75 53.25H707.75ZM706.276 44.804C705.227 42.4575 703.516 40.5463 701.062 39.5052L697.938 46.8698C698.234 46.9954 698.607 47.2508 698.974 48.071L706.276 44.804ZM701.062 39.5052C699.075 38.6619 696.87 38.3125 694.562 38.3125V46.3125C696.088 46.3125 697.175 46.5464 697.938 46.8698L701.062 39.5052ZM694.562 38.3125C691.873 38.3125 689.327 38.9105 687.035 40.2036L690.965 47.1714C691.923 46.6312 693.086 46.3125 694.562 46.3125V38.3125ZM687.065 40.1865C684.903 41.3816 683.113 43.0499 681.699 45.1163L688.301 49.6337C689.054 48.5334 689.93 47.7434 690.935 47.1885L687.065 40.1865ZM681.699 45.1163C680.316 47.1373 679.327 49.4346 678.686 51.9495L686.439 53.9255C686.881 52.1904 687.517 50.7794 688.301 49.6337L681.699 45.1163ZM678.669 52.0213C678.09 54.4815 677.812 57.0838 677.812 59.8125H685.812C685.812 57.6246 686.035 55.6435 686.456 53.8537L678.669 52.0213ZM720.928 54.8255L714.74 55.3255L715.385 63.2995L721.572 62.7995L720.928 54.8255ZM719.062 59.3125C719.062 55.0443 719.567 51.1572 720.543 47.6288L712.832 45.4962C711.642 49.8012 711.062 54.414 711.062 59.3125H719.062ZM720.543 47.6288C721.509 44.1347 722.929 41.2075 724.757 38.7824L718.368 33.9676C715.862 37.2925 714.032 41.157 712.832 45.4962L720.543 47.6288ZM724.773 38.7603C726.574 36.3362 728.783 34.4727 731.432 33.1309L727.818 25.9941C724.05 27.9023 720.884 30.5805 718.352 33.9897L724.773 38.7603ZM731.414 33.1402C734.016 31.839 737.155 31.125 740.938 31.125V23.125C736.137 23.125 731.734 24.036 727.836 25.9848L731.414 33.1402ZM740.938 31.125C743.718 31.125 746.132 31.5271 748.225 32.2697L750.9 24.7303C747.826 23.6396 744.49 23.125 740.938 23.125V31.125ZM748.244 32.2764C750.248 32.9764 751.939 34.0886 753.366 35.6431L759.259 30.2319C756.936 27.7031 754.127 25.857 750.881 24.7236L748.244 32.2764ZM753.396 35.6752C754.81 37.1816 756.027 39.2972 756.932 42.1931L764.568 39.8069C763.39 36.0362 761.648 32.7767 759.229 30.1998L753.396 35.6752ZM756.936 42.2068C757.817 44.9896 758.312 48.5964 758.312 53.125H766.312C766.312 48.0702 765.766 43.5938 764.564 39.7932L756.936 42.2068ZM758.312 53.125V96H766.312V53.125H758.312ZM762.312 92H742.688V100H762.312V92ZM746.688 96V53.125H738.688V96H746.688ZM746.688 53.125C746.688 49.9399 746.302 46.9732 745.159 44.6251L737.966 48.1249C738.323 48.8602 738.688 50.3935 738.688 53.125H746.688ZM745.197 44.705C744.134 42.3899 742.418 40.531 740 39.5052L736.875 46.8698C737.207 47.0107 737.575 47.2768 737.928 48.045L745.197 44.705ZM740.041 39.5229C738.079 38.6644 735.899 38.3125 733.625 38.3125V46.3125C735.101 46.3125 736.13 46.5439 736.834 46.8521L740.041 39.5229ZM733.625 38.3125C730.972 38.3125 728.455 38.874 726.213 40.1463L730.162 47.1037C731.004 46.626 732.112 46.3125 733.625 46.3125V38.3125ZM726.285 40.1062C724.169 41.2504 722.411 42.8506 721.027 44.8434L727.598 49.4066C728.297 48.3994 729.123 47.6662 730.09 47.1438L726.285 40.1062ZM721.058 44.8C719.684 46.7233 718.723 48.9278 718.119 51.3424L725.881 53.2826C726.277 51.6972 726.858 50.4433 727.567 49.45L721.058 44.8ZM718.119 51.3424C717.53 53.6981 717.25 56.1943 717.25 58.8125H725.25C725.25 56.764 725.47 54.9269 725.881 53.2826L718.119 51.3424ZM797.438 41.875L795.74 38.2532L795.717 38.2636L795.695 38.2744L797.438 41.875ZM794.438 44.5625L791.018 42.4866L790.991 42.5319L790.965 42.5779L794.438 44.5625ZM793.438 48.875V52.875H797.438V48.875H793.438ZM773.938 48.875H769.938V52.875H773.938V48.875ZM781.875 33.4375L779.426 30.2746L779.414 30.2843L779.401 30.294L781.875 33.4375ZM791.125 28.8125L792.283 32.6413L792.303 32.6352L792.323 32.6288L791.125 28.8125ZM817.312 29.8125L815.719 33.4814L815.741 33.491L815.764 33.5004L817.312 29.8125ZM827.188 37.75L823.883 40.0046L823.89 40.0137L823.896 40.0228L827.188 37.75ZM831.5 88.9375L827.575 89.7085L827.583 89.7494L827.592 89.7902L831.5 88.9375ZM833.625 94.9375H837.625V93.9321L837.15 93.0462L833.625 94.9375ZM833.625 96V100H837.625V96H833.625ZM813.938 96L810.315 97.6958L811.393 100H813.938V96ZM811.875 88.75L807.923 89.371L807.925 89.3797L811.875 88.75ZM813.625 54.75L817.625 54.7035L817.579 50.75H813.625V54.75ZM813.75 65.5V69.5H817.797L817.75 65.4535L813.75 65.5ZM798.438 66.3125L797.143 62.5278L797.127 62.5332L797.112 62.5387L798.438 66.3125ZM794.688 68.5625L797.452 71.4531L797.485 71.4224L797.516 71.3909L794.688 68.5625ZM792.562 71.8125L788.807 70.4355L788.794 70.4719L788.781 70.5085L792.562 71.8125ZM792.938 79.5625L789.496 81.6017L789.513 81.6304L789.531 81.6589L792.938 79.5625ZM806.25 81.5625L804.335 78.0509L804.318 78.0602L804.301 78.0697L806.25 81.5625ZM810.5 77.9375L813.768 80.2442L813.784 80.222L813.799 80.1996L810.5 77.9375ZM812 73.875L815.465 71.8761L808 58.9372V73.875H812ZM816.688 82L820.335 83.6415L821.175 81.7745L820.152 80.0011L816.688 82ZM813.938 87.1875L817.339 89.2929L817.35 89.2751L817.36 89.2572L813.938 87.1875ZM809.812 92.125L812.488 95.0982L812.509 95.0799L812.529 95.0614L809.812 92.125ZM803.75 95.8125L802.253 92.1031L802.242 92.1077L802.23 92.1124L803.75 95.8125ZM783.75 94.6875L781.944 98.2566L781.961 98.2653L781.978 98.2738L783.75 94.6875ZM775.438 87.5L772.116 89.7293L772.127 89.7449L772.137 89.7604L775.438 87.5ZM780.125 60.5625L777.766 57.332L777.754 57.341L777.742 57.3501L780.125 60.5625ZM790 56.25L790.941 60.1377L790.961 60.133L790.98 60.1282L790 56.25ZM815.188 79.875V50.875H807.188V79.875H815.188ZM815.188 50.875C815.188 48.4405 814.817 46.1263 813.927 44.0493L806.573 47.2007C806.933 48.0404 807.188 49.2261 807.188 50.875H815.188ZM813.927 44.0493C812.983 41.8482 811.465 40.0655 809.432 38.7955L805.193 45.5795C805.827 45.9761 806.267 46.4851 806.573 47.2007L813.927 44.0493ZM809.432 38.7955C807.277 37.4483 804.744 36.9375 802.125 36.9375V44.9375C803.756 44.9375 804.681 45.26 805.193 45.5795L809.432 38.7955ZM802.125 36.9375C799.871 36.9375 797.707 37.3311 795.74 38.2532L799.135 45.4968C799.835 45.1689 800.795 44.9375 802.125 44.9375V36.9375ZM795.695 38.2744C793.747 39.2172 792.148 40.6259 791.018 42.4866L797.857 46.6384C798.144 46.1657 798.545 45.7828 799.18 45.4756L795.695 38.2744ZM790.965 42.5779C789.871 44.4919 789.438 46.656 789.438 48.875H797.438C797.438 47.6773 797.671 46.9665 797.91 46.5471L790.965 42.5779ZM793.438 44.875H773.938V52.875H793.438V44.875ZM777.938 48.875C777.938 46.4621 778.476 44.2678 779.543 42.231L772.457 38.519C770.774 41.7322 769.938 45.2046 769.938 48.875H777.938ZM779.543 42.231C780.633 40.15 782.209 38.2643 784.349 36.581L779.401 30.294C776.457 32.6107 774.117 35.35 772.457 38.519L779.543 42.231ZM784.324 36.6004C786.469 34.9396 789.099 33.6037 792.283 32.6413L789.967 24.9837C785.984 26.1879 782.448 27.9354 779.426 30.2746L784.324 36.6004ZM792.323 32.6288C795.454 31.6458 799.062 31.125 803.188 31.125V23.125C798.397 23.125 793.963 23.7292 789.927 24.9962L792.323 32.6288ZM803.188 31.125C808.026 31.125 812.178 31.9432 815.719 33.4814L818.906 26.1436C814.197 24.0984 808.932 23.125 803.188 23.125V31.125ZM815.764 33.5004C819.26 34.9688 821.925 37.1351 823.883 40.0046L830.492 35.4954C827.616 31.2816 823.699 28.1562 818.861 26.1246L815.764 33.5004ZM823.896 40.0228C825.746 42.7024 826.812 46.2715 826.812 51H834.812C834.812 45.0618 833.462 39.7976 830.479 35.4772L823.896 40.0228ZM826.812 51V79.3125H834.812V51H826.812ZM826.812 79.3125C826.812 83.4989 827.044 87.004 827.575 89.7085L835.425 88.1665C835.04 86.2043 834.812 83.2927 834.812 79.3125H826.812ZM827.592 89.7902C828.155 92.371 828.976 94.7337 830.1 96.8288L837.15 93.0462C836.44 91.7246 835.845 90.0873 835.408 88.0848L827.592 89.7902ZM829.625 94.9375V96H837.625V94.9375H829.625ZM833.625 92H813.938V100H833.625V92ZM817.56 94.3042C816.846 92.7781 816.244 90.7451 815.825 88.1203L807.925 89.3797C808.423 92.5049 809.196 95.3052 810.315 97.6958L817.56 94.3042ZM815.827 88.129C815.401 85.4211 815.188 82.6704 815.188 79.875H807.188C807.188 83.0796 807.432 86.2456 807.923 89.371L815.827 88.129ZM809.625 54.7965L809.75 65.5465L817.75 65.4535L817.625 54.7035L809.625 54.7965ZM813.75 61.5H804.062V69.5H813.75V61.5ZM804.062 61.5C801.578 61.5 799.245 61.8086 797.143 62.5278L799.732 70.0972C800.797 69.7331 802.213 69.5 804.062 69.5V61.5ZM797.112 62.5387C795.119 63.2387 793.319 64.2738 791.859 65.7341L797.516 71.3909C797.972 70.9345 798.673 70.4696 799.763 70.0863L797.112 62.5387ZM791.923 65.6719C790.521 67.0126 789.475 68.6143 788.807 70.4355L796.318 73.1895C796.567 72.5107 796.937 71.9458 797.452 71.4531L791.923 65.6719ZM788.781 70.5085C788.201 72.1909 787.938 73.972 787.938 75.8125H795.938C795.938 74.7363 796.091 73.8507 796.344 73.1165L788.781 70.5085ZM787.938 75.8125C787.938 77.8666 788.445 79.8271 789.496 81.6017L796.379 77.5233C796.097 77.0479 795.938 76.5084 795.938 75.8125H787.938ZM789.531 81.6589C790.584 83.3695 792.035 84.7061 793.799 85.6509L797.576 78.5991C797.007 78.2939 796.625 77.9222 796.344 77.4661L789.531 81.6589ZM793.799 85.6509C795.635 86.6349 797.658 87.0625 799.75 87.0625V79.0625C798.758 79.0625 798.073 78.8651 797.576 78.5991L793.799 85.6509ZM799.75 87.0625C802.813 87.0625 805.686 86.4584 808.199 85.0553L804.301 78.0697C803.231 78.6666 801.77 79.0625 799.75 79.0625V87.0625ZM808.165 85.0741C810.427 83.8403 812.35 82.2525 813.768 80.2442L807.232 75.6308C806.65 76.4558 805.739 77.2847 804.335 78.0509L808.165 85.0741ZM813.799 80.1996C815.073 78.341 816 76.2038 816 73.875H808C808 74.0462 807.927 74.6173 807.201 75.6754L813.799 80.1996ZM808.535 75.8739L813.223 83.9989L820.152 80.0011L815.465 71.8761L808.535 75.8739ZM813.04 80.3585C812.365 81.8587 811.526 83.4448 810.515 85.1178L817.36 89.2572C818.516 87.3469 819.51 85.4746 820.335 83.6415L813.04 80.3585ZM810.536 85.0821C809.661 86.4958 808.525 87.8669 807.096 89.1886L812.529 95.0614C814.433 93.2998 816.047 91.3792 817.339 89.2929L810.536 85.0821ZM807.137 89.1518C805.863 90.2985 804.256 91.295 802.253 92.1031L805.247 99.5219C807.994 98.4134 810.429 96.9515 812.488 95.0982L807.137 89.1518ZM802.23 92.1124C800.502 92.8224 798.234 93.25 795.312 93.25V101.25C798.974 101.25 802.332 100.719 805.27 99.5126L802.23 92.1124ZM795.312 93.25C791.614 93.25 788.375 92.5106 785.522 91.1012L781.978 98.2738C786.042 100.281 790.511 101.25 795.312 101.25V93.25ZM785.556 91.1184C782.666 89.656 780.421 87.6976 778.738 85.2396L772.137 89.7604C774.62 93.3857 777.917 96.219 781.944 98.2566L785.556 91.1184ZM778.759 85.2707C777.195 82.9418 776.375 80.2313 776.375 77H768.375C768.375 81.6854 769.596 85.9749 772.116 89.7293L778.759 85.2707ZM776.375 77C776.375 73.9493 776.929 71.3998 777.933 69.263L770.692 65.862C769.112 69.2252 768.375 72.9673 768.375 77H776.375ZM777.933 69.263C778.927 67.1467 780.424 65.3215 782.508 63.7749L777.742 57.3501C774.659 59.6369 772.281 62.4783 770.692 65.862L777.933 69.263ZM782.484 63.793C784.591 62.2541 787.369 61.0025 790.941 60.1377L789.059 52.3623C784.714 53.4142 780.909 55.0375 777.766 57.332L782.484 63.793ZM790.98 60.1282C794.54 59.2288 798.822 58.75 803.875 58.75V50.75C798.345 50.75 793.377 51.2712 789.02 52.3718L790.98 60.1282ZM803.875 58.75H813.625V50.75H803.875V58.75ZM886.25 28.375V24.375H882.696L882.278 27.904L886.25 28.375ZM904 28.375H908V24.375H904V28.375ZM899.75 109.375L896.402 107.186L896.395 107.197L896.387 107.209L899.75 109.375ZM861.375 121.438L862.345 117.557L862.321 117.551L862.297 117.545L861.375 121.438ZM852.438 118L854.371 114.498L854.351 114.487L854.331 114.476L852.438 118ZM845.438 112.25L842.196 109.907L840.409 112.378L842.319 114.756L845.438 112.25ZM853.75 100.75L856.746 98.0997L853.435 94.3572L850.508 98.4068L853.75 100.75ZM860.625 106L862.458 102.445L862.436 102.433L862.414 102.422L860.625 106ZM882.625 101.438L879.103 99.5411L879.089 99.5676L879.075 99.5942L882.625 101.438ZM884.375 44.1875L880.403 43.7165L880.375 43.9512V44.1875H884.375ZM842.938 47.6875L846.772 48.8264L846.775 48.8162L842.938 47.6875ZM848.375 36.75L845.227 34.2825L845.222 34.2883L848.375 36.75ZM857.062 29.625L855.309 26.0299L855.3 26.0342L855.291 26.0385L857.062 29.625ZM879.938 29.75L877.922 33.2051L877.94 33.2156L877.958 33.2259L879.938 29.75ZM887.25 37L883.82 39.058L883.826 39.0682L883.832 39.0783L887.25 37ZM891.688 47.9375L887.814 48.9347L887.816 48.944L891.688 47.9375ZM894.312 61.5H898.312V61.2278L898.276 60.958L894.312 61.5ZM894.312 63.75L898.272 64.3157L898.312 64.0343V63.75H894.312ZM886.562 87.5L889.905 89.6976L889.912 89.6872L889.918 89.6768L886.562 87.5ZM879.062 94.6875L881.063 98.1514L881.07 98.147L881.078 98.1426L879.062 94.6875ZM848.375 87.5L845.206 89.9409L845.216 89.9543L845.227 89.9675L848.375 87.5ZM842.938 76.625L839.106 77.7744L842.938 76.625ZM861.312 70.4375L857.404 71.2902L857.412 71.324L857.42 71.3576L861.312 70.4375ZM863.688 76.5L860.25 78.5459L860.268 78.5758L860.286 78.6054L863.688 76.5ZM867.688 80.625L865.552 84.007L865.603 84.0395L865.656 84.0705L867.688 80.625ZM881.062 80.0625L883.314 83.3689L883.321 83.3638L883.329 83.3587L881.062 80.0625ZM885.438 74.375L881.719 72.9005L881.708 72.9284L881.698 72.9564L885.438 74.375ZM886.938 65.9375L890.937 65.9894L890.938 65.9635V65.9375H886.938ZM883.688 46.8125L880.433 49.1375L880.454 49.1678L880.477 49.1978L883.688 46.8125ZM879.562 43.5L877.846 47.1131L877.9 47.1386L877.955 47.1626L879.562 43.5ZM867.875 43.8125L869.907 47.258L869.939 47.2389L869.971 47.2191L867.875 43.8125ZM861.375 54.0625L865.271 54.967L865.273 54.9595L865.275 54.9519L861.375 54.0625ZM886.25 32.375H904V24.375H886.25V32.375ZM900 28.375V93.5625H908V28.375H900ZM900 93.5625C900 99.1501 898.732 103.623 896.402 107.186L903.098 111.564C906.435 106.46 908 100.392 908 93.5625H900ZM896.387 107.209C894.041 110.85 890.763 113.648 886.421 115.602L889.704 122.898C895.362 120.352 899.875 116.566 903.113 111.541L896.387 107.209ZM886.421 115.602C882.039 117.574 876.766 118.625 870.5 118.625V126.625C877.651 126.625 884.086 125.426 889.704 122.898L886.421 115.602ZM870.5 118.625C867.947 118.625 865.232 118.279 862.345 117.557L860.405 125.318C863.852 126.18 867.22 126.625 870.5 126.625V118.625ZM862.297 117.545C859.476 116.877 856.838 115.861 854.371 114.498L850.504 121.502C853.62 123.222 856.94 124.498 860.453 125.33L862.297 117.545ZM854.331 114.476C851.983 113.215 850.075 111.636 848.556 109.744L842.319 114.756C844.55 117.531 847.308 119.785 850.544 121.524L854.331 114.476ZM848.679 114.593L856.992 103.093L850.508 98.4068L842.196 109.907L848.679 114.593ZM850.754 103.4C853.02 105.962 855.726 108.023 858.836 109.578L862.414 102.422C860.191 101.311 858.313 99.871 856.746 98.0997L850.754 103.4ZM858.792 109.555C862.1 111.261 865.785 112.062 869.75 112.062V104.062C866.882 104.062 864.484 103.489 862.458 102.445L858.792 109.555ZM869.75 112.062C873.342 112.062 876.658 111.417 879.531 109.925L875.844 102.825C874.384 103.583 872.408 104.062 869.75 104.062V112.062ZM879.531 109.925C882.429 108.42 884.67 106.179 886.175 103.281L879.075 99.5942C878.33 101.03 877.28 102.08 875.844 102.825L879.531 109.925ZM886.147 103.334C887.697 100.455 888.375 97.1434 888.375 93.5625H880.375C880.375 96.1483 879.886 98.0866 879.103 99.5411L886.147 103.334ZM888.375 93.5625V44.1875H880.375V93.5625H888.375ZM888.347 44.6585L890.222 28.846L882.278 27.904L880.403 43.7165L888.347 44.6585ZM845.062 63V61.6875H837.062V63H845.062ZM845.062 61.6875C845.062 56.8853 845.648 52.6093 846.772 48.8264L839.103 46.5486C837.727 51.1823 837.062 56.2397 837.062 61.6875H845.062ZM846.775 48.8162C847.904 44.9789 849.505 41.8019 851.528 39.2117L845.222 34.2883C842.495 37.7815 840.471 41.8961 839.1 46.5588L846.775 48.8162ZM851.523 39.2175C853.586 36.5858 856.018 34.6021 858.834 33.2115L855.291 26.0385C851.357 27.9812 847.997 30.7475 845.227 34.2825L851.523 39.2175ZM858.816 33.2201C861.625 31.8499 864.848 31.125 868.562 31.125V23.125C863.777 23.125 859.333 24.0668 855.309 26.0299L858.816 33.2201ZM868.562 31.125C872.657 31.125 875.699 31.9085 877.922 33.2051L881.953 26.2949C878.176 24.0915 873.634 23.125 868.562 23.125V31.125ZM877.958 33.2259C880.327 34.575 882.278 36.4884 883.82 39.058L890.68 34.942C888.472 31.2616 885.548 28.3416 881.917 26.2741L877.958 33.2259ZM883.832 39.0783C885.466 41.7653 886.809 45.0322 887.814 48.9347L895.561 46.9403C894.399 42.4262 892.784 38.4014 890.668 34.9217L883.832 39.0783ZM887.816 48.944C888.855 52.938 889.701 57.3019 890.349 62.042L898.276 60.958C897.59 55.9481 896.687 51.2703 895.559 46.931L887.816 48.944ZM890.312 61.5V63.75H898.312V61.5H890.312ZM890.353 63.1843C889.713 67.6655 888.797 71.8117 887.616 75.6306L895.259 77.9944C896.578 73.73 897.579 69.1678 898.272 64.3157L890.353 63.1843ZM887.616 75.6306C886.459 79.3727 884.979 82.591 883.207 85.3232L889.918 89.6768C892.146 86.2423 893.916 82.3357 895.259 77.9944L887.616 75.6306ZM883.22 85.3024C881.543 87.8536 879.488 89.8086 877.047 91.2324L881.078 98.1426C884.637 96.0664 887.582 93.2297 889.905 89.6976L883.22 85.3024ZM877.062 91.2236C874.827 92.5145 872.006 93.25 868.438 93.25V101.25C873.119 101.25 877.382 100.277 881.063 98.1514L877.062 91.2236ZM868.438 93.25C864.785 93.25 861.623 92.5129 858.869 91.1186L855.256 98.2564C859.252 100.279 863.673 101.25 868.438 101.25V93.25ZM858.869 91.1186C856.035 89.6843 853.592 87.6718 851.523 85.0325L845.227 89.9675C847.991 93.4949 851.34 96.274 855.256 98.2564L858.869 91.1186ZM851.544 85.0591C849.5 82.4051 847.895 79.2297 846.769 75.4756L839.106 77.7744C840.48 82.3536 842.5 86.4282 845.206 89.9409L851.544 85.0591ZM846.769 75.4756C845.644 71.7267 845.062 67.5772 845.062 63H837.062C837.062 68.2561 837.731 73.1899 839.106 77.7744L846.769 75.4756ZM856.562 61.6875V63H864.562V61.6875H856.562ZM856.562 63C856.562 65.9151 856.836 68.6834 857.404 71.2902L865.221 69.5848C864.789 67.6083 864.562 65.4182 864.562 63H856.562ZM857.42 71.3576C858.041 73.985 858.971 76.3963 860.25 78.5459L867.125 74.4541C866.321 73.1037 865.668 71.4734 865.205 69.5174L857.42 71.3576ZM860.286 78.6054C861.657 80.8196 863.406 82.6519 865.552 84.007L869.823 77.243C868.802 76.5981 867.885 75.6804 867.089 74.3946L860.286 78.6054ZM865.656 84.0705C867.983 85.443 870.601 86.0625 873.375 86.0625V78.0625C871.815 78.0625 870.642 77.7237 869.719 77.1795L865.656 84.0705ZM873.375 86.0625C877.079 86.0625 880.502 85.2834 883.314 83.3689L878.811 76.7561C877.707 77.5083 876.004 78.0625 873.375 78.0625V86.0625ZM883.329 83.3587C886.044 81.4918 887.992 78.9194 889.177 75.7936L881.698 72.9564C881.05 74.664 880.081 75.8832 878.796 76.7663L883.329 83.3587ZM889.156 75.8495C890.33 72.8875 890.891 69.5749 890.937 65.9894L882.938 65.8856C882.901 68.7168 882.461 71.0292 881.719 72.9005L889.156 75.8495ZM890.938 65.9375V59.375H882.938V65.9375H890.938ZM890.938 59.375C890.938 56.444 890.64 53.708 890.001 51.1995L882.249 53.1755C882.693 54.917 882.938 56.9726 882.938 59.375H890.938ZM890.001 51.1995C889.357 48.6719 888.349 46.3805 886.898 44.4272L880.477 49.1978C881.192 50.1612 881.81 51.4531 882.249 53.1755L890.001 51.1995ZM886.942 44.4875C885.465 42.4186 883.51 40.8645 881.17 39.8374L877.955 47.1626C879.032 47.6355 879.827 48.2898 880.433 49.1375L886.942 44.4875ZM881.279 39.8869C878.945 38.7783 876.304 38.3125 873.5 38.3125V46.3125C875.446 46.3125 876.847 46.6384 877.846 47.1131L881.279 39.8869ZM873.5 38.3125C870.721 38.3125 868.104 38.9749 865.779 40.4059L869.971 47.2191C870.896 46.6501 872.029 46.3125 873.5 46.3125V38.3125ZM865.843 40.367C863.61 41.6838 861.804 43.5198 860.411 45.7696L867.214 49.9804C867.988 48.7302 868.89 47.8578 869.907 47.258L865.843 40.367ZM860.411 45.7696C859.058 47.9563 858.097 50.4449 857.475 53.1731L865.275 54.9519C865.736 52.9301 866.401 51.2937 867.214 49.9804L860.411 45.7696ZM857.479 53.158C856.859 55.8278 856.562 58.6769 856.562 61.6875H864.562C864.562 59.1981 864.808 56.9639 865.271 54.967L857.479 53.158ZM923.625 87.625L920.738 90.3935L920.757 90.4137L920.777 90.4336L923.625 87.625ZM922.938 37.0625L919.917 34.4398L919.915 34.4428L922.938 37.0625ZM933.062 29.75L934.634 33.4286L934.65 33.4217L934.666 33.4146L933.062 29.75ZM959.562 29.5L958.007 33.185L958.024 33.1924L958.042 33.1996L959.562 29.5ZM969.062 36.1875L966.068 38.8396L966.078 38.8503L966.087 38.861L969.062 36.1875ZM974.938 46.625L971.135 47.8666L971.143 47.89L971.151 47.9133L974.938 46.625ZM977 68.25V72.25H981V68.25H977ZM922.5 68.25H918.5V72.25H922.5V68.25ZM922.5 55.6875V51.6875H918.5V55.6875H922.5ZM957.875 55.6875V59.6875H961.875V55.6875H957.875ZM956.562 47.9375L952.936 49.6244L952.952 49.6588L952.968 49.6928L956.562 47.9375ZM952.812 43.8125L950.716 47.2191L950.767 47.2504L950.819 47.2801L952.812 43.8125ZM936.875 48.0625L933.33 46.2095L933.322 46.225L933.314 46.2406L936.875 48.0625ZM934.875 54.375L938.815 55.0662L938.817 55.0546L934.875 54.375ZM943.438 80.8125L941.806 84.4645L943.438 80.8125ZM958.938 80.375L960.48 84.0657L960.503 84.0559L960.526 84.0459L958.938 80.375ZM966.188 74.75L969.199 72.1173L966.058 68.5243L963.069 72.245L966.188 74.75ZM975.312 85.1875L978.609 87.4536L980.369 84.8936L978.324 82.5548L975.312 85.1875ZM969.5 91L971.891 94.2065L971.9 94.2L969.5 91ZM948.875 93.25C943.924 93.25 939.63 92.4638 935.929 90.9761L932.946 98.3989C937.745 100.328 943.076 101.25 948.875 101.25V93.25ZM935.929 90.9761C932.144 89.4545 929.014 87.3926 926.473 84.8164L920.777 90.4336C924.153 93.8574 928.231 96.5039 932.946 98.3989L935.929 90.9761ZM926.512 84.8565C923.962 82.1974 922.017 79.1458 920.665 75.6733L913.21 78.5767C914.941 83.0208 917.454 86.9692 920.738 90.3935L926.512 84.8565ZM920.665 75.6733C919.314 72.2047 918.625 68.4707 918.625 64.4375H910.625C910.625 69.4043 911.478 74.1286 913.21 78.5767L920.665 75.6733ZM918.625 64.4375V62.0625H910.625V64.4375H918.625ZM918.625 62.0625C918.625 57.3975 919.28 53.1844 920.545 49.3899L912.955 46.8601C911.387 51.5656 910.625 56.6442 910.625 62.0625H918.625ZM920.545 49.3899C921.809 45.596 923.623 42.3786 925.96 39.6822L919.915 34.4428C916.835 37.9964 914.524 42.154 912.955 46.8601L920.545 49.3899ZM925.958 39.6852C928.296 36.9928 931.169 34.9082 934.634 33.4286L931.491 26.0714C926.956 28.0085 923.079 30.7989 919.917 34.4398L925.958 39.6852ZM934.666 33.4146C938.08 31.9209 942.082 31.125 946.75 31.125V23.125C941.168 23.125 936.045 24.0791 931.459 26.0854L934.666 33.4146ZM946.75 31.125C951.1 31.125 954.828 31.843 958.007 33.185L961.118 25.815C956.797 23.9903 951.983 23.125 946.75 23.125V31.125ZM958.042 33.1996C961.251 34.5188 963.906 36.3987 966.068 38.8396L972.057 33.5354C969.052 30.1429 965.374 27.5645 961.083 25.8004L958.042 33.1996ZM966.087 38.861C968.259 41.2775 969.955 44.2537 971.135 47.8666L978.74 45.3834C977.253 40.8296 975.033 36.8475 972.038 33.514L966.087 38.861ZM971.151 47.9133C972.362 51.4728 973 55.5693 973 60.25H981C981 54.8474 980.263 49.8605 978.724 45.3367L971.151 47.9133ZM973 60.25V68.25H981V60.25H973ZM977 64.25H922.5V72.25H977V64.25ZM926.5 68.25V55.6875H918.5V68.25H926.5ZM922.5 59.6875H957.875V51.6875H922.5V59.6875ZM961.875 55.6875V54.1875H953.875V55.6875H961.875ZM961.875 54.1875C961.875 51.3193 961.345 48.6153 960.157 46.1822L952.968 49.6928C953.53 50.843 953.875 52.3057 953.875 54.1875H961.875ZM960.189 46.2506C959.019 43.7334 957.209 41.7263 954.806 40.3449L950.819 47.2801C951.749 47.8154 952.44 48.5583 952.936 49.6244L960.189 46.2506ZM954.909 40.4059C952.486 38.915 949.641 38.3125 946.625 38.3125V46.3125C948.609 46.3125 949.889 46.71 950.716 47.2191L954.909 40.4059ZM946.625 38.3125C943.695 38.3125 940.925 38.9314 938.552 40.4305L942.823 47.1945C943.616 46.6936 944.805 46.3125 946.625 46.3125V38.3125ZM938.552 40.4305C936.311 41.8456 934.58 43.8184 933.33 46.2095L940.42 49.9155C941.087 48.64 941.897 47.7794 942.823 47.1945L938.552 40.4305ZM933.314 46.2406C932.178 48.4601 931.404 50.9646 930.933 53.6954L938.817 55.0546C939.179 52.9521 939.738 51.2482 940.436 49.8844L933.314 46.2406ZM930.935 53.6838C930.473 56.3162 930.25 59.1124 930.25 62.0625H938.25C938.25 59.5126 938.443 57.1838 938.815 55.0662L930.935 53.6838ZM930.25 62.0625V64.4375H938.25V62.0625H930.25ZM930.25 64.4375C930.25 67.4219 930.653 70.2444 931.511 72.868L939.114 70.382C938.556 68.6722 938.25 66.7031 938.25 64.4375H930.25ZM931.511 72.868C932.372 75.5045 933.674 77.8557 935.452 79.85L941.423 74.525C940.451 73.4359 939.669 72.0789 939.114 70.382L931.511 72.868ZM935.452 79.85C937.218 81.8296 939.352 83.368 941.806 84.4645L945.069 77.1605C943.607 76.507 942.407 75.6287 941.423 74.525L935.452 79.85ZM941.806 84.4645C944.356 85.6038 947.155 86.125 950.125 86.125V78.125C948.095 78.125 946.436 77.7712 945.069 77.1605L941.806 84.4645ZM950.125 86.125C953.728 86.125 957.19 85.4405 960.48 84.0657L957.395 76.6843C955.102 77.6429 952.689 78.125 950.125 78.125V86.125ZM960.526 84.0459C963.958 82.5607 966.887 80.2666 969.306 77.255L963.069 72.245C961.405 74.3168 959.501 75.7726 957.349 76.7041L960.526 84.0459ZM963.176 77.3827L972.301 87.8202L978.324 82.5548L969.199 72.1173L963.176 77.3827ZM972.016 82.9214C970.947 84.4775 969.347 86.1146 967.1 87.8L971.9 94.2C974.653 92.1354 976.928 89.8975 978.609 87.4536L972.016 82.9214ZM967.109 87.7935C965.045 89.3322 962.479 90.653 959.346 91.7099L961.904 99.2901C965.688 98.0136 969.038 96.3344 971.891 94.2065L967.109 87.7935ZM959.346 91.7099C956.373 92.7131 952.899 93.25 948.875 93.25V101.25C953.601 101.25 957.961 100.62 961.904 99.2901L959.346 91.7099ZM1021.31 73.875L1018.16 76.3402L1018.2 76.3818L1018.23 76.4225L1021.31 73.875ZM1017.19 71.25L1015.69 74.9584L1015.7 74.9639L1015.72 74.9692L1017.19 71.25ZM1008.88 68.875L1009.74 64.9692L1009.72 64.9646L1009.7 64.9603L1008.88 68.875ZM999.438 66.125L997.952 69.8389L997.975 69.8481L997.998 69.857L999.438 66.125ZM991.812 61.9375L989.374 65.108L989.393 65.1229L989.413 65.1375L991.812 61.9375ZM986.75 56.0625L983.212 57.9281L983.219 57.9416L983.226 57.955L986.75 56.0625ZM986.75 40.1875L983.161 38.4222L983.149 38.4461L983.137 38.4701L986.75 40.1875ZM992.125 33.4375L989.58 30.3513L989.567 30.3624L989.554 30.3736L992.125 33.4375ZM1000.75 28.8125L999.499 25.0132L999.492 25.0155L999.485 25.0178L1000.75 28.8125ZM1027.81 29.9375L1026.22 33.6086L1026.24 33.615L1026.25 33.6214L1027.81 29.9375ZM1037.81 37.6875L1034.54 39.9813L1034.54 39.9911L1034.55 40.0007L1037.81 37.6875ZM1041.31 49V53H1045.31V49H1041.31ZM1021.81 49H1017.81V53H1021.81V49ZM1017.75 41.4375L1015.83 44.9491L1015.88 44.9717L1015.92 44.9934L1017.75 41.4375ZM1007.69 41.25L1009.33 44.8955L1009.36 44.8838L1009.39 44.8718L1007.69 41.25ZM1004.62 43.6875L1001.38 41.3503L1001.35 41.3939L1001.32 41.4383L1004.62 43.6875ZM1004.19 49.9375L1000.65 51.8005L1000.71 51.9139L1000.77 52.0233L1004.19 49.9375ZM1006.25 52.0625L1003.9 55.2974L1003.98 55.3573L1004.06 55.4129L1006.25 52.0625ZM1009.94 53.75L1008.67 57.5447L1008.69 57.5499L1008.7 57.5549L1009.94 53.75ZM1015.56 55.1875L1014.75 59.104L1014.79 59.1125L1014.83 59.1202L1015.56 55.1875ZM1028.44 58.875L1026.92 62.5778L1026.93 62.5806L1026.94 62.5834L1028.44 58.875ZM1037.81 65.4375L1034.74 68.0027L1034.75 68.0161L1034.77 68.0294L1037.81 65.4375ZM1039.31 84.75L1035.81 82.8223L1035.8 82.8449L1035.78 82.8676L1039.31 84.75ZM986.188 85.1875L982.805 87.322L982.819 87.3455L982.835 87.3689L986.188 85.1875ZM982.875 74.4375V70.4375H978.875V74.4375H982.875ZM1001.19 74.4375L1005.18 74.2895L1005.04 70.4375H1001.19V74.4375ZM1002.88 79.9375L999.652 82.3071L999.675 82.3374L999.698 82.3673L1002.88 79.9375ZM1007.06 83.0625L1005.61 86.7888L1005.65 86.8043L1005.69 86.819L1007.06 83.0625ZM1021.38 80.75L1024.58 83.15L1024.6 83.1188L1024.62 83.0872L1021.38 80.75ZM1026.5 77.1875C1026.5 75.0134 1025.78 73.0071 1024.4 71.3275L1018.23 76.4225C1018.42 76.6596 1018.5 76.8616 1018.5 77.1875H1026.5ZM1024.46 71.4098C1023.05 69.6105 1020.88 68.4102 1018.66 67.5308L1015.72 74.9692C1017.49 75.6731 1018.07 76.2228 1018.16 76.3402L1024.46 71.4098ZM1018.69 67.5416C1016.43 66.6275 1013.41 65.7794 1009.74 64.9692L1008.01 72.7808C1011.51 73.554 1014.03 74.2892 1015.69 74.9584L1018.69 67.5416ZM1009.7 64.9603C1006.51 64.2917 1003.57 63.4331 1000.88 62.393L997.998 69.857C1001.13 71.0669 1004.49 72.0417 1008.05 72.7897L1009.7 64.9603ZM1000.92 62.4111C998.282 61.3546 996.058 60.1214 994.212 58.7375L989.413 65.1375C991.901 67.0036 994.76 68.5621 997.952 69.8389L1000.92 62.4111ZM994.251 58.767C992.501 57.4203 991.196 55.8877 990.274 54.17L983.226 57.955C984.72 60.7373 986.791 63.1214 989.374 65.108L994.251 58.767ZM990.288 54.1969C989.42 52.5494 988.938 50.5994 988.938 48.25H980.938C980.938 51.734 981.664 54.9923 983.212 57.9281L990.288 54.1969ZM988.938 48.25C988.938 46.0066 989.411 43.9063 990.363 41.9049L983.137 38.4701C981.672 41.5521 980.938 44.8267 980.938 48.25H988.938ZM990.339 41.9528C991.326 39.9468 992.756 38.1297 994.696 36.5014L989.554 30.3736C986.827 32.662 984.674 35.3448 983.161 38.4222L990.339 41.9528ZM994.67 36.5237C996.611 34.9229 999.035 33.6006 1002.01 32.6072L999.485 25.0178C995.715 26.2744 992.389 28.0355 989.58 30.3513L994.67 36.5237ZM1002 32.6118C1004.94 31.6437 1008.38 31.125 1012.38 31.125V23.125C1007.7 23.125 1003.39 23.7313 999.499 25.0132L1002 32.6118ZM1012.38 31.125C1017.93 31.125 1022.51 31.9994 1026.22 33.6086L1029.4 26.2664C1024.45 24.1256 1018.74 23.125 1012.38 23.125V31.125ZM1026.25 33.6214C1030.01 35.2086 1032.7 37.3549 1034.54 39.9813L1041.09 35.3937C1038.26 31.3535 1034.29 28.333 1029.37 26.2536L1026.25 33.6214ZM1034.55 40.0007C1036.38 42.579 1037.31 45.5319 1037.31 49H1045.31C1045.31 43.9681 1043.91 39.3794 1041.08 35.3743L1034.55 40.0007ZM1041.31 45H1021.81V53H1041.31V45ZM1025.81 49C1025.81 46.7407 1025.38 44.5663 1024.37 42.6029L1017.26 46.2721C1017.58 46.892 1017.81 47.7593 1017.81 49H1025.81ZM1024.37 42.6029C1023.29 40.5238 1021.65 38.9449 1019.58 37.8816L1015.92 44.9934C1016.6 45.3468 1017 45.7679 1017.26 46.2721L1024.37 42.6029ZM1019.67 37.9259C1017.5 36.7459 1014.96 36.3125 1012.31 36.3125V44.3125C1014.17 44.3125 1015.25 44.6291 1015.83 44.9491L1019.67 37.9259ZM1012.31 36.3125C1010.08 36.3125 1007.95 36.7116 1005.99 37.6282L1009.39 44.8718C1010.1 44.5384 1011.04 44.3125 1012.31 44.3125V36.3125ZM1006.04 37.6045C1004.18 38.4455 1002.58 39.6821 1001.38 41.3503L1007.87 46.0247C1008.17 45.6096 1008.61 45.2212 1009.33 44.8955L1006.04 37.6045ZM1001.32 41.4383C1000.12 43.2041 999.562 45.2121 999.562 47.3125H1007.56C1007.56 46.6629 1007.72 46.2542 1007.93 45.9367L1001.32 41.4383ZM999.562 47.3125C999.562 48.8725 999.907 50.3938 1000.65 51.8005L1007.73 48.0745C1007.63 47.8979 1007.56 47.6692 1007.56 47.3125H999.562ZM1000.77 52.0233C1001.57 53.3319 1002.67 54.4069 1003.9 55.2974L1008.6 48.8276C1007.99 48.3848 1007.72 48.0431 1007.6 47.8517L1000.77 52.0233ZM1004.06 55.4129C1005.4 56.2806 1006.96 56.9745 1008.67 57.5447L1011.2 49.9553C1009.91 49.5255 1009.02 49.0944 1008.44 48.7121L1004.06 55.4129ZM1008.7 57.5549C1010.43 58.1132 1012.45 58.6267 1014.75 59.104L1016.38 51.271C1014.26 50.8317 1012.53 50.3868 1011.17 49.9451L1008.7 57.5549ZM1014.83 59.1202C1019.31 59.9524 1023.33 61.111 1026.92 62.5778L1029.95 55.1722C1025.79 53.4723 1021.23 52.1726 1016.29 51.2548L1014.83 59.1202ZM1026.94 62.5834C1030.34 63.9603 1032.89 65.7911 1034.74 68.0027L1040.88 62.8723C1038.06 59.5006 1034.36 56.9563 1029.94 55.1666L1026.94 62.5834ZM1034.77 68.0294C1036.38 69.9305 1037.38 72.621 1037.38 76.5H1045.38C1045.38 71.2123 1043.99 66.5278 1040.86 62.8456L1034.77 68.0294ZM1037.38 76.5C1037.38 78.8619 1036.84 80.9436 1035.81 82.8223L1042.82 86.6777C1044.53 83.5564 1045.38 80.1381 1045.38 76.5H1037.38ZM1035.78 82.8676C1034.76 84.784 1033.24 86.5315 1031.13 88.0936L1035.87 94.5314C1038.84 92.3435 1041.2 89.716 1042.84 86.6324L1035.78 82.8676ZM1031.13 88.0936C1029.02 89.6488 1026.41 90.9184 1023.25 91.85L1025.5 99.525C1029.42 98.3733 1032.9 96.7262 1035.87 94.5314L1031.13 88.0936ZM1023.25 91.85C1020.14 92.7643 1016.53 93.25 1012.38 93.25V101.25C1017.14 101.25 1021.53 100.694 1025.5 99.525L1023.25 91.85ZM1012.38 93.25C1006.47 93.25 1001.74 92.187 998.03 90.262L994.345 97.363C999.469 100.021 1005.53 101.25 1012.38 101.25V93.25ZM998.03 90.262C994.1 88.2231 991.343 85.7768 989.54 83.0061L982.835 87.3689C985.532 91.5148 989.441 94.8185 994.345 97.363L998.03 90.262ZM989.57 83.053C987.712 80.1075 986.875 77.2546 986.875 74.4375H978.875C978.875 78.9537 980.246 83.2675 982.805 87.322L989.57 83.053ZM982.875 78.4375H1001.19V70.4375H982.875V78.4375ZM997.19 74.5855C997.295 77.4132 998.018 80.0847 999.652 82.3071L1006.1 77.5679C1005.65 76.9569 1005.25 75.9618 1005.18 74.2895L997.19 74.5855ZM999.698 82.3673C1001.24 84.3828 1003.24 85.8638 1005.61 86.7888L1008.52 79.3362C1007.47 78.9279 1006.68 78.3255 1006.05 77.5077L999.698 82.3673ZM1005.69 86.819C1007.9 87.6297 1010.3 88 1012.81 88V80C1011.08 80 1009.64 79.7453 1008.44 79.306L1005.69 86.819ZM1012.81 88C1015.27 88 1017.6 87.667 1019.65 86.8237L1016.6 79.4263C1015.82 79.7497 1014.6 80 1012.81 80V88ZM1019.65 86.8237C1021.58 86.0279 1023.31 84.843 1024.58 83.15L1018.17 78.35C1017.94 78.657 1017.5 79.0554 1016.6 79.4263L1019.65 86.8237ZM1024.62 83.0872C1025.88 81.3372 1026.5 79.325 1026.5 77.1875H1018.5C1018.5 77.7167 1018.37 78.0795 1018.13 78.4128L1024.62 83.0872Z" fill="url(#paint0_linear_152_30)" mask="url(#path-1-outside-1_152_30)"/>
<defs>
<linearGradient id="paint0_linear_152_30" x1="55.4999" y1="-71.4998" x2="1019" y2="184" gradientUnits="userSpaceOnUse">
<stop stop-color="#5C52D0"/>
<stop offset="1" stop-color="#D65555"/>
</linearGradient>
</defs>
</svg>
